<svg width="154" height="52" viewBox="0 0 154 52" fill="none" xmlns="http://www.w3.org/2000/svg">
<path d="M153.762 37.6936C153.762 45.1514 147.652 51.2615 140.194 51.2615H13.5679C6.11003 51.2615 0 45.1514 0 37.6936V13.5679C0 6.11006 6.11003 0 13.5679 0H140.194C147.652 0 153.762 6.11006 153.762 13.5679V37.6936Z" fill="#404040"/>
<path d="M58.5246 18.8496L57.8746 17.2496H54.8546L54.2046 18.8496H53.4046L56.0746 12.3496H56.6546L59.3246 18.8496H58.5246ZM55.1346 16.5496H57.5846L56.3546 13.5196L55.1346 16.5496ZM60.9732 18.8496L59.1632 14.2496H59.9132L61.3332 17.8596L62.7632 14.2496H63.5132L61.6832 18.8496H60.9732ZM67.9833 14.2496H68.7133V18.8496H67.9833V18.0196C67.6333 18.5696 67.0533 18.9296 66.2733 18.9296C64.9633 18.9296 64.0333 17.9196 64.0333 16.5496C64.0333 15.1696 64.9633 14.1796 66.2733 14.1796C67.0533 14.1796 67.6333 14.5296 67.9833 15.0796V14.2496ZM66.3633 18.2396C67.3533 18.2396 67.9833 17.5296 67.9833 16.5496C67.9833 15.5696 67.3533 14.8696 66.3633 14.8696C65.3833 14.8696 64.7333 15.5696 64.7333 16.5496C64.7333 17.5296 65.3833 18.2396 66.3633 18.2396ZM70.4043 13.2696C70.1843 13.2696 69.9643 13.0896 69.9643 12.8196C69.9643 12.5496 70.1843 12.3896 70.4043 12.3896C70.6243 12.3896 70.8443 12.5496 70.8443 12.8196C70.8443 13.0896 70.6243 13.2696 70.4043 13.2696ZM70.7643 18.8496H70.0443V14.2496H70.7743L70.7643 18.8496ZM72.823 18.8496H72.103V12.3496H72.823V18.8496ZM77.8954 14.2496H78.6254V18.8496H77.8954V18.0196C77.5454 18.5696 76.9654 18.9296 76.1854 18.9296C74.8754 18.9296 73.9454 17.9196 73.9454 16.5496C73.9454 15.1696 74.8754 14.1796 76.1854 14.1796C76.9654 14.1796 77.5454 14.5296 77.8954 15.0796V14.2496ZM76.2754 18.2396C77.2654 18.2396 77.8954 17.5296 77.8954 16.5496C77.8954 15.5696 77.2654 14.8696 76.2754 14.8696C75.2954 14.8696 74.6454 15.5696 74.6454 16.5496C74.6454 17.5296 75.2954 18.2396 76.2754 18.2396ZM82.3064 14.1796C83.6164 14.1796 84.5564 15.1696 84.5564 16.5496C84.5564 17.9196 83.6164 18.9296 82.3064 18.9296C81.5264 18.9296 80.9464 18.5696 80.5964 18.0196V18.8496H79.8764V12.3496H80.5964V15.0796C80.9464 14.5296 81.5264 14.1796 82.3064 14.1796ZM82.2164 18.2396C83.1964 18.2396 83.8464 17.5296 83.8464 16.5496C83.8464 15.5696 83.1964 14.8696 82.2164 14.8696C81.2364 14.8696 80.5964 15.5696 80.5964 16.5496C80.5964 17.5296 81.2364 18.2396 82.2164 18.2396ZM86.3875 18.8496H85.6675V12.3496H86.3875V18.8496ZM89.7799 14.1696C91.0999 14.1696 91.9799 15.1796 91.9799 16.5496V16.7796H88.2099C88.2999 17.6996 88.9299 18.3096 89.8399 18.3096C90.5199 18.3096 90.9899 17.9996 91.2499 17.6096L91.7599 17.9796C91.3599 18.5696 90.6799 18.9396 89.8399 18.9396C88.4399 18.9396 87.5099 17.9196 87.5099 16.5496C87.5099 15.1796 88.3999 14.1696 89.7799 14.1696ZM89.7799 14.7696C88.8799 14.7696 88.3099 15.3796 88.2099 16.2796H91.3099C91.2099 15.4096 90.6399 14.7696 89.7799 14.7696ZM97.301 18.9396C95.921 18.9396 94.961 17.9196 94.961 16.5496C94.961 15.1696 95.921 14.1696 97.301 14.1696C98.681 14.1696 99.641 15.1696 99.641 16.5496C99.641 17.9196 98.681 18.9396 97.301 18.9396ZM97.301 18.2396C98.271 18.2396 98.911 17.5196 98.911 16.5496C98.911 15.5796 98.271 14.8696 97.301 14.8696C96.331 14.8696 95.681 15.5796 95.681 16.5496C95.681 17.5196 96.331 18.2396 97.301 18.2396ZM102.955 14.1796C103.875 14.1796 104.785 14.7196 104.785 16.0196V18.8496H104.065V16.1196C104.065 15.2396 103.445 14.8096 102.765 14.8096C102.075 14.8096 101.475 15.2396 101.475 16.1196V18.8496H100.755V14.2496H101.475V14.8696C101.825 14.3896 102.385 14.1796 102.955 14.1796ZM110.22 14.8196H109.12V17.6496C109.12 18.1396 109.42 18.2596 109.76 18.2596H110.17V18.8496H109.5C108.8 18.8496 108.39 18.4496 108.39 17.7496V14.8196H107.75V14.2496H108.39V12.8496H109.12V14.2496H110.22V14.8196ZM113.414 14.1796C114.334 14.1796 115.244 14.7196 115.244 16.0196V18.8496H114.524V16.1196C114.524 15.2396 113.904 14.8096 113.224 14.8096C112.534 14.8096 111.934 15.2396 111.934 16.1196V18.8496H111.214V12.3496H111.934V14.8696C112.284 14.3896 112.844 14.1796 113.414 14.1796ZM118.637 14.1696C119.957 14.1696 120.837 15.1796 120.837 16.5496V16.7796H117.067C117.157 17.6996 117.787 18.3096 118.697 18.3096C119.377 18.3096 119.847 17.9996 120.107 17.6096L120.617 17.9796C120.217 18.5696 119.537 18.9396 118.697 18.9396C117.297 18.9396 116.367 17.9196 116.367 16.5496C116.367 15.1796 117.257 14.1696 118.637 14.1696ZM118.637 14.7696C117.737 14.7696 117.167 15.3796 117.067 16.2796H120.167C120.067 15.4096 119.497 14.7696 118.637 14.7696Z" fill="white"/>
<path d="M60.4718 40.001L59.3018 37.121H53.8658L52.6958 40.001H51.2558L56.0618 28.301H57.1058L61.9118 40.001H60.4718ZM54.3698 35.861H58.7798L56.5658 30.407L54.3698 35.861ZM67.8417 31.595C70.1997 31.595 71.8917 33.413 71.8917 35.879C71.8917 38.363 70.1997 40.145 67.8417 40.145C66.4377 40.145 65.3937 39.515 64.7637 38.507V43.313H63.4677V31.721H64.7637V33.233C65.3937 32.225 66.4377 31.595 67.8417 31.595ZM67.6797 38.903C69.4437 38.903 70.6137 37.643 70.6137 35.879C70.6137 34.115 69.4437 32.837 67.6797 32.837C65.9157 32.837 64.7637 34.115 64.7637 35.879C64.7637 37.643 65.9157 38.903 67.6797 38.903ZM78.2655 31.595C80.6235 31.595 82.3155 33.413 82.3155 35.879C82.3155 38.363 80.6235 40.145 78.2655 40.145C76.8615 40.145 75.8175 39.515 75.1875 38.507V43.313H73.8915V31.721H75.1875V33.233C75.8175 32.225 76.8615 31.595 78.2655 31.595ZM78.1035 38.903C79.8675 38.903 81.0375 37.643 81.0375 35.879C81.0375 34.115 79.8675 32.837 78.1035 32.837C76.3395 32.837 75.1875 34.115 75.1875 35.879C75.1875 37.643 76.3395 38.903 78.1035 38.903ZM87.5588 37.499L88.6748 36.761C89.0888 37.859 90.5288 38.849 92.4728 38.849C94.4888 38.849 95.3348 38.093 95.3348 36.743C95.3348 35.213 93.0488 34.853 91.9868 34.547C90.8528 34.241 87.9728 33.755 87.9728 31.343C87.9728 29.147 89.8448 28.103 92.3468 28.103C94.5068 28.103 96.2348 29.147 96.6668 30.425L95.5508 31.091C95.2268 30.227 93.8948 29.453 92.2028 29.453C90.4568 29.453 89.5028 30.137 89.5028 31.289C89.5028 32.729 91.5908 33.035 92.7428 33.341C93.7868 33.647 96.8288 34.259 96.8288 36.689C96.8288 38.993 95.1548 40.199 92.3468 40.199C89.8268 40.199 88.1168 39.029 87.5588 37.499ZM102.635 32.747H100.655V37.841C100.655 38.723 101.195 38.939 101.807 38.939H102.545V40.001H101.339C100.079 40.001 99.3414 39.281 99.3414 38.021V32.747H98.1894V31.721H99.3414V29.201H100.655V31.721H102.635V32.747ZM107.963 40.163C105.479 40.163 103.751 38.327 103.751 35.861C103.751 33.377 105.479 31.577 107.963 31.577C110.447 31.577 112.175 33.377 112.175 35.861C112.175 38.327 110.447 40.163 107.963 40.163ZM107.963 38.903C109.709 38.903 110.861 37.607 110.861 35.861C110.861 34.115 109.709 32.837 107.963 32.837C106.217 32.837 105.047 34.115 105.047 35.861C105.047 37.607 106.217 38.903 107.963 38.903ZM115.477 33.251C116.107 32.117 117.223 31.613 118.393 31.595V32.837C117.115 32.855 115.477 33.521 115.477 35.537V40.001H114.181V31.721H115.477V33.251ZM123.323 31.577C125.699 31.577 127.283 33.395 127.283 35.861V36.275H120.497C120.659 37.931 121.793 39.029 123.431 39.029C124.655 39.029 125.501 38.471 125.969 37.769L126.887 38.435C126.167 39.497 124.943 40.163 123.431 40.163C120.911 40.163 119.237 38.327 119.237 35.861C119.237 33.395 120.839 31.577 123.323 31.577ZM123.323 32.657C121.703 32.657 120.677 33.755 120.497 35.375H126.077C125.897 33.809 124.871 32.657 123.323 32.657Z" fill="white"/>
<path d="M26.9334 10.7373H11.0293C9.72644 10.7373 8.67065 11.7931 8.67065 13.0959V40.0071C8.67065 41.31 9.72644 42.3657 11.0293 42.3657H26.9334C28.2363 42.3657 29.2921 41.31 29.2921 40.0071V13.0959C29.2921 11.8155 28.2138 10.7373 26.9334 10.7373Z" fill="white"/>
<path d="M28.1466 14.5337H9.79395V36.7275H28.1466V14.5337Z" fill="#404040"/>
<path d="M22.7328 12.1523H15.2076C14.9156 12.1523 14.646 12.3994 14.646 12.7139C14.646 13.0284 14.8931 13.2755 15.2076 13.2755H22.7328C23.0249 13.2755 23.2944 13.0284 23.2944 12.7139C23.2944 12.4219 23.0473 12.1523 22.7328 12.1523Z" fill="#6639A6"/>
<path d="M17.1846 39.4006C17.1846 38.4122 17.9933 37.5811 18.9816 37.5811C19.97 37.5811 20.8012 38.3897 20.8012 39.4006C20.8012 40.389 19.9925 41.1976 18.9816 41.1976C17.9933 41.2201 17.1846 40.4114 17.1846 39.4006Z" fill="#6639A6"/>
</svg>
