<svg width="21" height="22" viewBox="0 0 21 22" fill="none" xmlns="http://www.w3.org/2000/svg">
<g filter="url(#filter0_d_155_681)">
<path d="M6.83892 4.24403V13.272H4.42758V4.24403H6.83892ZM4.27739 1.8911C4.27739 1.54066 4.39976 1.25141 4.64451 1.02335C4.88926 0.795284 5.21745 0.681253 5.62908 0.681253C6.03514 0.681253 6.36055 0.795284 6.6053 1.02335C6.85561 1.25141 6.98076 1.54066 6.98076 1.8911C6.98076 2.24153 6.85561 2.53078 6.6053 2.75885C6.36055 2.98691 6.03514 3.10094 5.62908 3.10094C5.21745 3.10094 4.88926 2.98691 4.64451 2.75885C4.39976 2.53078 4.27739 2.24153 4.27739 1.8911ZM11.5194 6.17144V13.272H9.11643V4.24403H11.3692L11.5194 6.17144ZM11.169 8.44094H10.5182C10.5182 7.77344 10.6044 7.17269 10.7768 6.63869C10.9493 6.09913 11.1912 5.64022 11.5027 5.26197C11.8142 4.87816 12.1841 4.58613 12.6125 4.38588C13.0463 4.18007 13.5303 4.07716 14.0643 4.07716C14.487 4.07716 14.8736 4.13835 15.2241 4.26072C15.5745 4.3831 15.8749 4.57778 16.1252 4.84478C16.3811 5.11178 16.5757 5.465 16.7092 5.90444C16.8483 6.34388 16.9178 6.88066 16.9178 7.51478V13.272H14.4981V7.50644C14.4981 7.10594 14.4425 6.79444 14.3313 6.57194C14.22 6.34944 14.0559 6.19369 13.839 6.10469C13.6276 6.01013 13.3662 5.96285 13.0547 5.96285C12.7321 5.96285 12.4511 6.02682 12.212 6.15475C11.9783 6.28269 11.7836 6.46069 11.6279 6.68875C11.4777 6.91125 11.3637 7.17269 11.2858 7.47307C11.2079 7.77344 11.169 8.09607 11.169 8.44094Z" fill="#2A2F2F"/>
</g>
<defs>
<filter id="filter0_d_155_681" x="0.277344" y="0.681152" width="20.6404" height="20.5908" filterUnits="userSpaceOnUse" color-interpolation-filters="sRGB">
<feFlood flood-opacity="0" result="BackgroundImageFix"/>
<feColorMatrix in="SourceAlpha" type="matrix" values="0 0 0 0 0 0 0 0 0 0 0 0 0 0 0 0 0 0 127 0" result="hardAlpha"/>
<feOffset dy="4"/>
<feGaussianBlur stdDeviation="2"/>
<feComposite in2="hardAlpha" operator="out"/>
<feColorMatrix type="matrix" values="0 0 0 0 0 0 0 0 0 0 0 0 0 0 0 0 0 0 0.25 0"/>
<feBlend mode="normal" in2="BackgroundImageFix" result="effect1_dropShadow_155_681"/>
<feBlend mode="normal" in="SourceGraphic" in2="effect1_dropShadow_155_681" result="shape"/>
</filter>
</defs>
</svg>
