<svg width="18" height="17" viewBox="0 0 18 17" fill="none" xmlns="http://www.w3.org/2000/svg">
<g id="Icon">
<g id="Vector">
<path d="M3.5 6.52243C3.5 6.16615 3.79848 5.87732 4.16667 5.87732H4.2619C4.63009 5.87732 4.92857 6.16615 4.92857 6.52243V6.52243C4.92857 6.87872 4.63009 7.16754 4.2619 7.16754H4.16667C3.79848 7.16754 3.5 6.87872 3.5 6.52243V6.52243ZM3.5 9.10288C3.5 8.74659 3.79848 8.45777 4.16667 8.45777H4.2619C4.63009 8.45777 4.92857 8.74659 4.92857 9.10288V9.10288C4.92857 9.45916 4.63009 9.74799 4.2619 9.74799H4.16667C3.79848 9.74799 3.5 9.45916 3.5 9.10288V9.10288ZM12.0714 9.10288C12.0714 8.74659 12.3699 8.45777 12.7381 8.45777H12.8333C13.2015 8.45777 13.5 8.74659 13.5 9.10288V9.10288C13.5 9.45916 13.2015 9.74799 12.8333 9.74799H12.7381C12.3699 9.74799 12.0714 9.45916 12.0714 9.10288V9.10288ZM12.0714 6.52243C12.0714 6.16615 12.3699 5.87732 12.7381 5.87732H12.8333C13.2015 5.87732 13.5 6.16615 13.5 6.52243V6.52243C13.5 6.87872 13.2015 7.16754 12.8333 7.16754H12.7381C12.3699 7.16754 12.0714 6.87872 12.0714 6.52243V6.52243ZM6.35714 6.52243C6.35714 6.16615 6.65562 5.87732 7.02381 5.87732H7.11905C7.48724 5.87732 7.78571 6.16615 7.78571 6.52243V6.52243C7.78571 6.87872 7.48724 7.16754 7.11905 7.16754H7.02381C6.65562 7.16754 6.35714 6.87872 6.35714 6.52243V6.52243ZM9.21429 6.52243C9.21429 6.16615 9.51276 5.87732 9.88095 5.87732H9.97619C10.3444 5.87732 10.6429 6.16615 10.6429 6.52243V6.52243C10.6429 6.87872 10.3444 7.16754 9.97619 7.16754H9.88095C9.51276 7.16754 9.21429 6.87872 9.21429 6.52243V6.52243ZM9.21429 9.10288C9.21429 8.74659 9.51276 8.45777 9.88095 8.45777H9.97619C10.3444 8.45777 10.6429 8.74659 10.6429 9.10288V9.10288C10.6429 9.45916 10.3444 9.74799 9.97619 9.74799H9.88095C9.51276 9.74799 9.21429 9.45916 9.21429 9.10288V9.10288ZM6.35714 9.10288C6.35714 8.74659 6.65562 8.45777 7.02381 8.45777H7.11905C7.48724 8.45777 7.78571 8.74659 7.78571 9.10288V9.10288C7.78571 9.45916 7.48724 9.74799 7.11905 9.74799H7.02381C6.65562 9.74799 6.35714 9.45916 6.35714 9.10288V9.10288Z" fill="white"/>
<path d="M3.5 11.3608C3.5 11.0045 3.79848 10.7157 4.16667 10.7157H4.2619C4.63009 10.7157 4.92857 11.0045 4.92857 11.3608V11.3608C4.92857 11.7171 4.63009 12.0059 4.2619 12.0059H4.16667C3.79848 12.0059 3.5 11.7171 3.5 11.3608V11.3608ZM6.35714 11.3608C6.35714 11.0045 6.65562 10.7157 7.02381 10.7157H7.11905C7.48724 10.7157 7.78571 11.0045 7.78571 11.3608V11.3608C7.78571 11.7171 7.48724 12.0059 7.11905 12.0059H7.02381C6.65562 12.0059 6.35714 11.7171 6.35714 11.3608V11.3608ZM9.21429 11.3608C9.21429 11.0045 9.51276 10.7157 9.88095 10.7157H9.97619C10.3444 10.7157 10.6429 11.0045 10.6429 11.3608V11.3608C10.6429 11.7171 10.3444 12.0059 9.97619 12.0059H9.88095C9.51276 12.0059 9.21429 11.7171 9.21429 11.3608V11.3608Z" fill="white"/>
</g>
<g id="Group 342">
<path id="Vector_2" d="M15.7214 13.0811H13.0547V10.5006H13.9436V12.2209H15.7214V13.0811Z" fill="white"/>
<path id="Vector_3" d="M13.5 9.64054C15.1889 9.64054 16.6111 11.0168 16.6111 12.6511C16.6111 14.2853 15.1889 15.6616 13.5 15.6616C11.8111 15.6616 10.3889 14.2853 10.3889 12.6511C10.3889 11.0168 11.8111 9.64054 13.5 9.64054ZM13.5 8.7804C11.2778 8.7804 9.5 10.5007 9.5 12.6511C9.5 14.8014 11.2778 16.5217 13.5 16.5217C15.7222 16.5217 17.5 14.8014 17.5 12.6511C17.5 10.5007 15.7222 8.7804 13.5 8.7804Z" fill="white"/>
</g>
<path id="Subtract" d="M1.18829 2.53476C1.30885 2.41809 1.47236 2.35256 1.64286 2.35256H15.3571C15.5276 2.35256 15.6912 2.41809 15.8117 2.53476C15.9323 2.65142 16 2.80964 16 2.97463V8.45271C16.3653 8.65553 16.7011 8.90174 17 9.18426V2.97463C17 2.553 16.8269 2.14865 16.5188 1.85051C16.2107 1.55238 15.7929 1.38489 15.3571 1.38489H1.64286C1.20714 1.38489 0.789277 1.55238 0.481182 1.85051C0.173086 2.14865 0 2.553 0 2.97463V14.0337C0 14.4553 0.173086 14.8597 0.481182 15.1578C0.789277 15.4559 1.20714 15.6234 1.64286 15.6234H9.54392C9.30635 15.3268 9.10384 15.0024 8.94218 14.6558H1.64286C1.47236 14.6558 1.30885 14.5902 1.18829 14.4736C1.06773 14.3569 1 14.1987 1 14.0337V2.97463C1 2.80964 1.06773 2.65142 1.18829 2.53476Z" fill="white"/>
<rect id="Rectangle 268" x="3.5" y="0.0715332" width="1" height="3.87067" rx="0.5" fill="white"/>
<rect id="Rectangle 269" x="8" y="0.0715332" width="1" height="3.87067" rx="0.5" fill="white"/>
<rect id="Rectangle 270" x="12.5" y="0.0715332" width="1" height="3.87067" rx="0.5" fill="white"/>
</g>
</svg>
