<svg width="42" height="42" viewBox="0 0 42 42" fill="none" xmlns="http://www.w3.org/2000/svg"><path d="M40.629 11.743 38.267 14.8l-.493 3.833-3.832.493-3.057 2.36-3.058-2.36-3.832-.493-.493-3.832-2.36-3.057 2.36-3.057.493-3.832 3.832-.493L30.886 2l3.057 2.36 3.832.494.493 3.832 2.36 3.057z" stroke="#40DDB6" stroke-width="2" stroke-miterlimit="10"/><path d="M36.185 18.32v11.516l-5.3-3.552-5.3 3.552V18.32" stroke="#40DDB6" stroke-width="2" stroke-miterlimit="10"/><path d="M23.005 21.567a8.81 8.81 0 01-15.975-4.4L5.996 3.968h15.91" stroke="#40DDB6" stroke-width="2" stroke-miterlimit="10"/><path d="M6.79 17.19H4.582a2.13 2.13 0 01-2.117-1.88L1.132 8.993A2.13 2.13 0 013.25 6.612h2.944" stroke="#40DDB6" stroke-width="2" stroke-miterlimit="10"/><path d="M17.983 24.854s.463 5.355 3.24 7.734" stroke="#40DDB6" stroke-width="2" stroke-miterlimit="10"/><path d="M13.796 24.854s-.463 5.355-3.24 7.734" stroke="#40DDB6" stroke-width="2" stroke-miterlimit="10"/><path d="M24.088 36.874H7.693v-2.413c0-1.186.888-2.148 1.983-2.148h12.429c1.095 0 1.983.962 1.983 2.15v2.412z" stroke="#40DDB6" stroke-width="2" stroke-miterlimit="10"/><path d="M25.96 40.17H5.82v-1.147c0-1.187.887-2.149 1.982-2.149h16.175c1.096 0 1.983.962 1.983 2.15v1.146z" stroke="#40DDB6" stroke-width="2" stroke-miterlimit="10"/><path d="M5.82 40.17h20.14v-1.147c0-1.187-.887-2.149-1.982-2.149H7.803c-1.095 0-1.983.962-1.983 2.15v1.146z" stroke="#40DDB6" stroke-width="2" stroke-miterlimit="10"/><path d="m26.754 13.818 2.512 1.851L35.282 8" stroke="#40DDB6" stroke-width="2" stroke-miterlimit="10"/></svg>