<svg width="73" height="72" viewBox="0 0 73 72" fill="none" xmlns="http://www.w3.org/2000/svg"><rect width="73" height="72" fill="#F5F5F5"/><g id="Homepage - 1" clip-path="url(#clip0_1_6)"><rect width="1920" height="9954" transform="translate(-1051 -2474)" fill="white"/><g id="Services"><g id="Content"><g id="1"><g id="2"><rect width="385" height="173" transform="translate(-282.5 -30)" fill="#F4F4F4"/><g id="Content_2"><g id="Icon"><circle id="Ellipse 120" cx="36.5" cy="36" r="36" fill="#6B77E5"/><g id="Icon_2"><path id="Vector" d="M53 52.5H20" stroke="white" stroke-width="2" stroke-linecap="round" stroke-linejoin="round"/><path id="Vector_2" d="M39.5 27v18a1.5 1.5 0 001.5 1.5h7.5A1.5 1.5 0 0050 45V27a1.5 1.5 0 00-1.5-1.5H41A1.5 1.5 0 0039.5 27z" stroke="white" stroke-width="2" stroke-linecap="round" stroke-linejoin="round"/><path id="Vector_3" d="M32 18h-7.5A1.5 1.5 0 0023 19.5V45a1.5 1.5 0 001.5 1.5H32a1.5 1.5 0 001.5-1.5V19.5A1.5 1.5 0 0032 18z" stroke="white" stroke-width="2" stroke-linecap="round" stroke-linejoin="round"/></g></g></g></g></g></g></g></g><defs><clipPath id="clip0_1_6"><rect width="1920" height="9954" fill="white" transform="translate(-1051 -2474)"/></clipPath></defs></svg>