<svg width="171" height="45" viewBox="0 0 171 45" fill="none" xmlns="http://www.w3.org/2000/svg"><path d="M36.573 44.575H8.595c-4.598 0-8.324-3.689-8.324-8.24v-27.7c0-4.551 3.727-8.24 8.325-8.24h27.978c4.598 0 8.325 3.689 8.325 8.24v27.7c0 4.551-3.727 8.24-8.325 8.24z" fill="#40DDB6"/><path d="M30.623 22.891c.796.99 1.2 2.14 1.2 3.44 0 1.914-.644 3.414-1.932 4.477-1.288 1.063-3.132 1.613-5.532 1.613H13.874V10.1h10.231c2.3-.001 4.068.499 5.318 1.487s1.882 2.4 1.882 4.227c0 1.35-.366 2.463-1.086 3.363-.72.9-1.668 1.476-2.843 1.751 1.377.325 2.45.976 3.246 1.963zm-11.305-3.663h3.575c1.895 0 2.842-.8 2.842-2.4 0-1.601-.973-2.402-2.905-2.402h-3.512v4.802zm6.922 6.353c0-.8-.265-1.426-.795-1.876-.53-.45-1.289-.675-2.262-.675h-3.852v5.014h3.891c2.01-.013 3.02-.826 3.02-2.464z" fill="white"/><path d="m70.754 32.42-4.876-8.428H64.64v8.428h-5.456V10.1h9.31c1.78-.001 3.296.299 4.521.911 1.238.614 2.16 1.452 2.78 2.515.618 1.063.921 2.276.921 3.652 0 1.625-.455 3-1.352 4.139-.909 1.138-2.21 1.913-3.94 2.338l5.355 8.779h-6.026v-.013zM64.64 20.303h3.373c1.086 0 1.882-.238 2.387-.713.506-.475.77-1.175.77-2.1 0-.889-.264-1.576-.782-2.09-.518-.5-1.314-.762-2.375-.762H64.64v5.665z" fill="#37393F"/><path d="M101.398 28.356h-8.45l-1.403 4.077h-5.734l8.262-22.16h6.277l8.26 22.16h-5.797l-1.415-4.077zm-1.402-4.114-2.805-8.204-2.84 8.204h5.646z" fill="#37393F"/><path d="M138.71 32.42h-5.456l-9.12-13.705V32.42h-5.456V10.1h5.457l9.12 13.83V10.098h5.456v22.32z" fill="#37393F"/><path d="M169.305 27.043c-.947 1.688-2.31 3.014-4.08 3.964-1.78.95-3.865 1.426-6.265 1.426h-8.514V10.11h8.514c2.425.001 4.522.464 6.278 1.39 1.768.925 3.12 2.225 4.067 3.913.947 1.688 1.415 3.614 1.415 5.815 0 2.176-.48 4.114-1.415 5.815zm-5.874-1.125c1.176-1.113 1.77-2.69 1.77-4.702 0-2.026-.594-3.59-1.77-4.702-1.173-1.113-2.828-1.676-4.963-1.676h-2.577v12.755h2.577c2.135 0 3.79-.55 4.964-1.675z" fill="#37393F"/></svg>