<svg width="73" height="72" viewBox="0 0 73 72" fill="none" xmlns="http://www.w3.org/2000/svg"><circle cx="36.5" cy="36" r="36" fill="#6B77E5"/><path d="M53 52.5H20" stroke="white" stroke-width="2" stroke-linecap="round" stroke-linejoin="round"/><path d="M39.5 27v18a1.5 1.5 0 001.5 1.5h7.5A1.5 1.5 0 0050 45V27a1.5 1.5 0 00-1.5-1.5H41A1.5 1.5 0 0039.5 27z" stroke="white" stroke-width="2" stroke-linecap="round" stroke-linejoin="round"/><path d="M32 18h-7.5A1.5 1.5 0 0023 19.5V45a1.5 1.5 0 001.5 1.5H32a1.5 1.5 0 001.5-1.5V19.5A1.5 1.5 0 0032 18z" stroke="white" stroke-width="2" stroke-linecap="round" stroke-linejoin="round"/></svg>