<svg width="42" height="41" viewBox="0 0 42 41" fill="none" xmlns="http://www.w3.org/2000/svg"><path d="M27.41 39.88H12.343a4.967 4.967 0 01-4.967-4.968V10.39" stroke="#40DDB6" stroke-width="2" stroke-miterlimit="10"/><path d="M4.026 1h25.471a4.835 4.835 0 014.836 4.835v10.88" stroke="#40DDB6" stroke-width="2" stroke-miterlimit="10"/><path d="M7.358 9.544H1V4.18a3.18 3.18 0 016.359 0v5.364h-.002z" stroke="#40DDB6" stroke-width="2" stroke-miterlimit="10"/><path d="m40.117 25.653-1.429 2.14-.503 2.524-2.524.504-2.14 1.43-2.14-1.43-2.523-.503-.503-2.523-1.43-2.14 1.43-2.14.503-2.525 2.524-.504 2.14-1.428 2.141 1.428 2.525.503.503 2.523 1.429 2.14z" stroke="#40DDB6" stroke-width="2" stroke-miterlimit="10"/><path d="M37.164 30.174v8.776l-3.643-2.44-3.642 2.44v-8.776" stroke="#40DDB6" stroke-width="2" stroke-miterlimit="10"/><path d="M14 8.335h11.988" stroke="#40DDB6" stroke-width="2" stroke-miterlimit="10"/><path d="M14 14.495h11.988" stroke="#40DDB6" stroke-width="2" stroke-miterlimit="10"/><path d="M14 20.589h11.988" stroke="#40DDB6" stroke-width="2" stroke-miterlimit="10"/><path d="M14 26.55h7.947" stroke="#40DDB6" stroke-width="2" stroke-miterlimit="10"/><path d="M14 32.644h7.947" stroke="#40DDB6" stroke-width="2" stroke-miterlimit="10"/></svg>