<svg width="121" height="73" viewBox="0 0 121 73" fill="none" xmlns="http://www.w3.org/2000/svg"><path d="M62.167 61.606c-13.717 13.976-36.243 14.19-50.22.465a38.25 38.25 0 01-1.763-1.852l1.343-1.182c.537.6 1.092 1.2 1.674 1.764 13.27 13.027 34.668 12.83 47.695-.448l1.272 1.254z" fill="#40DDB6"/><path d="m64.154 14.055-1.38 1.146a36.875 36.875 0 00-2.336-2.542C47.17-.369 25.771-.162 12.744 13.106a34.702 34.702 0 00-2.516 2.865l-1.406-1.1a35.095 35.095 0 012.65-3.018c13.717-13.976 36.243-14.19 50.22-.474.868.85 1.692 1.755 2.462 2.677z" fill="#40DDB6"/><path d="m111.57 12.783-1.342 1.182c-.538-.6-1.093-1.2-1.675-1.764C96.333.214 77.073-.734 63.77 10.01l-1.13-1.397C76.654-2.705 96.924-1.71 109.799 10.922a38.23 38.23 0 011.773 1.863z" fill="#40DDB6"/><path d="M110.273 61.159C98.392 73.262 79.518 75.277 65.39 65.948l.984-1.497c13.413 8.855 31.337 6.94 42.618-4.548a34.577 34.577 0 002.516-2.865l1.406 1.101a35.06 35.06 0 01-2.64 3.019z" fill="#40DDB6"/><path d="m5.482 55.16.421-.26.833 1.344.93-.582-.653-1.048.421-.26.654 1.048 1.388-.86.322.52-3.17 1.97-1.146-1.872z" fill="#37393F"/><path d="M6.584 50.048 6.1 48.884l.457-.188.725 1.728-3.447 1.433-.232-.564 2.98-1.245z" fill="#37393F"/><path d="M5.223 45.132c-.099.323-.269.6-.52.824-.25.233-.546.385-.904.466-.359.08-.7.071-1.012-.036a1.892 1.892 0 01-.815-.528 1.898 1.898 0 01-.448-.887 1.885 1.885 0 01.537-1.817 1.97 1.97 0 01.905-.456c.358-.08.698-.071 1.02.036.323.098.591.269.815.52.224.25.376.545.448.886.08.339.062.67-.027.993zm-.797-1.486a1.2 1.2 0 00-.573-.34 1.49 1.49 0 00-.743 0c-.269.063-.493.17-.672.322-.179.153-.304.332-.367.547a1.34 1.34 0 00-.017.68c.054.242.153.448.305.609.152.16.34.277.564.34.224.063.474.063.743 0 .269-.063.492-.17.671-.322.18-.153.305-.332.376-.546a1.25 1.25 0 00.018-.68 1.308 1.308 0 00-.304-.61z" fill="#37393F"/><path d="m4.39 37.227-1.46.913.019.465 1.494-.053.018.609-3.733.126-.046-1.28c-.01-.287.036-.529.125-.735a.98.98 0 01.384-.455c.161-.108.35-.161.555-.17.24-.01.465.053.67.188.207.134.35.349.43.635l1.514-.976.026.735zm-1.933 1.396-.027-.68c-.01-.233-.072-.403-.188-.51-.117-.117-.278-.162-.466-.162a.626.626 0 00-.448.19c-.107.116-.152.295-.143.528l.027.671 1.245-.037z" fill="#37393F"/><path d="m4.086 30.906-.215 1.55.718.375-.09.637L.98 31.622l.098-.698 3.886-.806-.09.636-.788.152zm-.52.098-1.799.359 1.639.841.16-1.2z" fill="#37393F"/><path d="m5.41 26.34.368-1.21.474.144-.546 1.79-3.572-1.083.179-.58 3.098.94z" fill="#37393F"/><path d="M7.497 21.88c-.17.144-.349.233-.537.27a.895.895 0 01-.582-.09l.287-.591a.617.617 0 00.438-.001c.144-.055.26-.18.35-.36.09-.187.116-.358.071-.51a.49.49 0 00-.277-.33.462.462 0 00-.323-.037.868.868 0 00-.286.17 8.05 8.05 0 00-.322.35c-.162.188-.305.34-.43.447a.995.995 0 01-.448.215c-.17.036-.367 0-.573-.099a.977.977 0 01-.439-.385 1.102 1.102 0 01-.143-.563c.01-.214.063-.43.17-.662.153-.322.367-.555.627-.69.26-.134.537-.134.833-.026l-.296.608a.51.51 0 00-.394.026.724.724 0 00-.33.358c-.073.162-.1.305-.064.448.035.143.125.242.277.313.107.054.206.063.295.027a.695.695 0 00.27-.16c.08-.081.187-.189.312-.34.17-.198.314-.35.448-.458a.996.996 0 01.457-.224c.178-.035.366-.008.58.1.17.08.314.205.421.366.109.161.163.358.172.573.008.224-.045.448-.162.69a1.47 1.47 0 01-.403.564z" fill="#37393F"/><path d="m116.155 18.487-.43.25-.797-1.37-.95.556.62 1.065-.43.25-.62-1.065-1.414.824-.304-.528 3.232-1.872 1.093 1.889z" fill="#37393F"/><path d="m114.91 23.563.448 1.182-.457.179-.67-1.755 3.482-1.335.215.573-3.017 1.155z" fill="#37393F"/><path d="M116.128 28.523c.107-.323.286-.591.537-.806.25-.215.564-.367.922-.439a1.92 1.92 0 011.012.063c.312.117.58.296.796.556.215.26.358.555.42.895.063.342.045.673-.062.995a1.876 1.876 0 01-.537.806 1.81 1.81 0 01-.913.43c-.36.072-.7.045-1.012-.062a1.776 1.776 0 01-.797-.546 1.92 1.92 0 01-.42-.904c-.072-.34-.054-.672.053-.985zm.752 1.504c.152.17.33.286.564.358.233.072.475.072.743.027.27-.054.493-.152.68-.295.18-.144.314-.323.386-.538.07-.216.08-.44.035-.681a1.31 1.31 0 00-.286-.62 1.17 1.17 0 00-.555-.357c-.224-.072-.475-.072-.743-.027-.27.054-.502.152-.68.295-.18.145-.314.324-.386.539a1.34 1.34 0 00-.044.68c.044.24.143.447.286.617z" fill="#37393F"/><path d="m116.728 36.447 1.486-.868v-.467l-1.495.01v-.61l3.732-.018.01 1.29c0 .286-.046.528-.144.725a1.04 1.04 0 01-.967.6 1.16 1.16 0 01-.662-.206c-.196-.134-.34-.358-.41-.654l-1.54.931-.01-.733zm1.97-1.343v.68c0 .233.062.403.178.52.117.116.27.17.466.17.197 0 .34-.063.457-.17.106-.117.16-.287.16-.52v-.68h-1.263z" fill="#37393F"/><path d="m116.844 42.768.26-1.54-.708-.394.108-.636 3.464 1.943-.116.7-3.913.698.107-.636.797-.134zm.528-.08 1.81-.314-1.613-.895-.198 1.207z" fill="#37393F"/><path d="m115.394 47.299-.403 1.199-.465-.163.59-1.781 3.547 1.181-.197.583-3.07-1.021z" fill="#37393F"/><path d="M113.182 51.695c.17-.135.35-.224.546-.251a.97.97 0 01.582.107l-.296.583a.573.573 0 00-.438-.009c-.144.054-.26.17-.358.35-.1.188-.126.358-.09.51a.49.49 0 00.27.34.455.455 0 00.32.045.656.656 0 00.287-.162c.09-.08.197-.188.332-.34.17-.188.313-.332.447-.44a.987.987 0 01.448-.205c.17-.036.367.009.573.116.188.098.33.232.43.402.098.17.134.358.125.573-.01.215-.08.43-.197.654-.16.321-.385.545-.644.67a.99.99 0 01-.843 0l.313-.6c.126.054.26.045.403-.009.143-.061.25-.178.34-.348.08-.152.108-.304.08-.447-.026-.144-.115-.251-.268-.323a.383.383 0 00-.295-.035.774.774 0 00-.278.152 2.91 2.91 0 00-.322.33c-.17.188-.322.34-.457.448a1.07 1.07 0 01-.456.215c-.18.035-.367-.01-.582-.117a.98.98 0 01-.403-.385 1.136 1.136 0 01-.16-.58c0-.225.06-.448.178-.681a1.42 1.42 0 01.412-.565z" fill="#37393F"/><path d="M34.223 28.702c1.075 0 1.89-.125 2.453-.367.556-.25.923-.438 1.093-.564-.001.26-.055.574-.162.932-.108.368-.305.717-.582 1.066a3.45 3.45 0 01-1.093.868c-.447.233-1.02.358-1.71.358-.877 0-1.728-.17-2.542-.5a36.28 36.28 0 01-2.417-1.084 67.603 67.603 0 00-2.355-1.084 5.865 5.865 0 00-2.381-.5c-.878 0-1.657.142-2.32.42a5.34 5.34 0 00-1.691 1.11 6.236 6.236 0 00-1.146 1.576c-.305.59-.547 1.19-.726 1.808a10.27 10.27 0 00-.367 1.791 14.655 14.655 0 00-.098 1.55c-.001.627.053 1.11.16 1.468.108.359.18.582.224.69v.036a4.614 4.614 0 01-1.227-.547 3.343 3.343 0 01-.823-.868c-.251-.368-.368-.843-.368-1.416 0-.904.198-1.835.6-2.802A9.17 9.17 0 0118.403 30c.707-.796 1.567-1.45 2.578-1.97 1.013-.518 2.132-.77 3.35-.77.707 0 1.495.073 2.355.225s1.736.313 2.623.501c.895.18 1.764.35 2.614.502.842.143 1.612.214 2.301.214zm-12.122 16.51c0-.215.063-.573.18-1.074.116-.501.277-1.101.483-1.8.206-.698.439-1.477.707-2.336.269-.86.547-1.746.824-2.668-.582.125-1.065.188-1.45.188-.26 0-.475-.045-.645-.126a1.36 1.36 0 01-.422-.295 1.138 1.138 0 01-.224-.33.672.672 0 01-.062-.26c.062.062.188.134.367.206.178.071.384.116.599.116.231 0 .536-.036.903-.116.367-.072.76-.17 1.19-.278.215-.779.43-1.549.645-2.31.215-.77.403-1.477.564-2.122.162-.644.287-1.2.385-1.665.099-.465.144-.796.144-.984v-.224c0-.062-.008-.17-.035-.322a8.406 8.406 0 011.45.59c.26.144.484.278.68.404.198.125.287.224.287.286 0 .34-.143 1.02-.439 2.033a150.105 150.105 0 01-1.083 3.58 22.35 22.35 0 001.513-.465 6.792 6.792 0 011.066-.304c-.001-.17-.02-.304-.064-.385.278.044.564.089.85.124.287.045.556.099.806.161.251.063.448.144.6.242.153.099.224.206.224.34 0 .197-.045.421-.125.68-.089.26-.178.53-.286.807a9.275 9.275 0 00-.277.841c-.08.287-.099.547-.08.806l-.646.001c-.276.001-.554-.008-.822-.035a2.674 2.674 0 01-.708-.143c-.206-.072-.304-.197-.304-.367 0-.125.036-.296.116-.501.072-.206.162-.421.26-.663.099-.232.188-.473.278-.706.09-.233.152-.44.197-.61-.368.108-.761.26-1.191.449-.43.197-.967.394-1.612.608-.277.95-.564 1.908-.85 2.884-.287.976-.556 1.907-.788 2.785a77.888 77.888 0 00-.6 2.371c-.161.7-.25 1.255-.278 1.658a5.15 5.15 0 01-.52-.161c-.259-.09-.518-.18-.787-.278a5.968 5.968 0 01-.706-.305c-.206-.108-.313-.215-.313-.323z" fill="#6B77E5"/><path d="M92.787 42.455c.152-.555.394-1.432.725-2.614a86.408 86.408 0 011.227-3.947 66.562 66.562 0 011.673-4.477 36.87 36.87 0 012.033-4.208c.716-1.272 1.486-2.31 2.292-3.125.805-.815 1.638-1.227 2.498-1.227.322 0 .626.108.922.323.286.214.555.446.788.706.26.305.5.645.743 1.03-.064-.018-.144-.045-.225-.063-.063-.018-.143-.045-.224-.063-.088-.018-.17-.035-.258-.035-1.093 0-2.13.385-3.098 1.164-.967.768-1.872 1.753-2.704 2.944-.842 1.19-1.594 2.516-2.274 3.967a63.493 63.493 0 00-1.79 4.208 78.054 78.054 0 00-1.308 3.671c-.358 1.092-.61 1.889-.761 2.38.125.26.26.422.385.485a5.086 5.086 0 01-1.325.017 2.274 2.274 0 01-1.093-.447c-.322-.25-.582-.6-.77-1.066-.197-.466-.304-1.048-.322-1.756-.018-.662-.045-1.513-.063-2.533-.019-1.02-.045-2.04-.063-3.061-.018-1.022-.036-1.935-.045-2.741-.01-.807-.018-1.317-.018-1.532v-.52c-.17.52-.465 1.344-.868 2.48a80.112 80.112 0 01-3.528 8.201A40.016 40.016 0 0183 44.73c-.814 1.244-1.655 2.265-2.515 3.062-.86.796-1.71 1.19-2.543 1.19a1.03 1.03 0 01-.805-.358 2.893 2.893 0 01-.52-.806 6.9 6.9 0 01-.385-1.19c.09.044.17.071.26.098.17.045.322.063.448.063 1.056-.001 2.077-.368 3.062-1.094.985-.725 1.916-1.674 2.784-2.82a29.828 29.828 0 002.436-3.805 58.902 58.902 0 002.014-4.064 76.217 76.217 0 001.513-3.626c.42-1.092.733-1.916.948-2.453-.09-.26-.125-.439-.125-.546.26 0 .546.01.85.037.314.017.61.107.887.26.277.151.52.366.707.662.197.285.287.706.287 1.243 0 .278.009.69.035 1.227.017.537.035 1.137.044 1.79.01.654.027 1.335.045 2.05.017.708.035 1.389.044 2.033.009.645.018 1.218.036 1.71.008.493.017.86.017 1.093.027.752.108 1.405.26 1.97z" fill="#6B77E5"/><path d="M62.65 30.278c-.152 3.85-1.728 6.438-3.546 6.366-1.817-.071-3.178-2.775-3.026-6.625.152-3.851 3.59-7.307 3.59-7.307s3.134 3.715 2.982 7.566z" fill="#37393F"/><path d="M66.975 29.007c-.018.152-.466 3.751-2.704 5.864-1.065 1.013-2.22 1.756-3.24 2.088-1.092.358-1.988.241-2.525-.332-1.048-1.1-.152-3.554 2.068-5.667 2.238-2.114 5.847-2.365 6.008-2.374l.449-.027-.055.447zm-7.924 7.1c.323.35.95.394 1.747.134.913-.294 1.97-.975 2.955-1.915 1.584-1.495 2.193-3.912 2.39-4.933-1.02.143-3.474.618-5.05 2.113-1.414 1.343-2.292 2.82-2.292 3.859 0 .313.09.564.251.743z" fill="#37393F"/><path d="M59.669 36.67c-.342.305-.807.457-1.344.43-1.245-.062-2.847-1.047-4.271-2.632-2.06-2.292-2.22-5.91-2.23-6.061l-.017-.457.447.063c.153.018 3.734.564 5.793 2.847 1.388 1.54 2.176 3.134 2.176 4.378.018.6-.18 1.102-.555 1.433zm-5.05-2.712c1.28 1.415 2.712 2.337 3.75 2.39.34.018.61-.062.797-.232.206-.188.314-.484.314-.869 0-1.047-.743-2.489-1.978-3.877-1.46-1.62-3.859-2.292-4.87-2.516.116 1.021.528 3.474 1.987 5.104z" fill="#37393F"/><path d="M59.714 28.908a.306.306 0 00-.296-.304.3.3 0 00-.313.286l-.806 20.011-.001.01c-.001.161.124.296.294.305.17.008.305-.126.314-.296l.806-20.012c0 .01 0 .01 0 0z" fill="#37393F"/><path d="M71.559 34.2c-.001-.027-.001-.045-.01-.071a.308.308 0 00-.367-.225c-.126.027-12.41 3.125-12.83 13.815v.009c0 .16.125.294.286.303a.302.302 0 00.312-.295c.412-10.243 12.249-13.224 12.365-13.251a.287.287 0 00.242-.287z" fill="#37393F"/><path d="M67.878 40.691v-.044a.3.3 0 00-.34-.26c-.09.01-8.935 1.29-9.213 8.13v.01c0 .16.125.295.296.304a.302.302 0 00.314-.296c.25-6.33 8.604-7.539 8.685-7.548a.292.292 0 00.258-.295z" fill="#37393F"/><path d="M58.97 47.19c0-10.277-11.576-14.2-11.693-14.244a.305.305 0 00-.385.197.312.312 0 00.197.385c.116.036 11.692 3.958 11.271 14.2l.001.01c.001.16.127.295.288.304.17.009.304-.126.313-.296.01-.188.01-.376.01-.555z" fill="#37393F"/><path d="M58.934 48.23c0-6.59-8.452-8.506-8.542-8.524a.304.304 0 00-.358.233.3.3 0 00.233.357c.08.018 8.282 1.871 8.058 8.22v.008c0 .161.125.296.295.305a.302.302 0 00.314-.296v-.304z" fill="#37393F"/><path d="M73.42 34.29a2.168 2.168 0 01-2.247 2.077c-1.164-.045-2.077-.994-2.077-2.247a2.168 2.168 0 012.247-2.077 2.157 2.157 0 012.077 2.166v.08zm-2.22 1.244a1.344 1.344 0 001.388-1.28l.42-.054h-.42a1.34 1.34 0 00-1.28-1.334c-.735-.027-1.353.546-1.389 1.334 0 .717.563 1.307 1.28 1.334z" fill="#37393F"/><path d="M49.345 33.323a2.145 2.145 0 01-.698 1.504 2.16 2.16 0 01-1.558.573c-1.165-.045-2.078-.994-2.078-2.248.027-.582.268-1.11.698-1.504a2.16 2.16 0 011.558-.573 2.157 2.157 0 012.077 2.167v.08zm-2.22 1.244a1.3 1.3 0 00.958-.35c.26-.24.412-.572.43-.93l.42-.054h-.412a1.34 1.34 0 00-2.237-.985c-.26.242-.412.573-.43.985a1.32 1.32 0 001.272 1.334z" fill="#37393F"/><path d="M69.32 40.763a1.738 1.738 0 01-1.818 1.674 1.738 1.738 0 01-1.674-1.818c.036-.967.85-1.72 1.818-1.675.967.036 1.71.85 1.674 1.818z" fill="#37393F"/><path d="M52.076 40.073a1.738 1.738 0 01-1.818 1.675 1.738 1.738 0 01-1.674-1.818c.036-.967.85-1.72 1.818-1.674.966.036 1.71.85 1.674 1.817z" fill="#37393F"/></svg>