<svg width="137" height="45" viewBox="0 0 137 45" fill="none" xmlns="http://www.w3.org/2000/svg"><path d="M12.137.606v.192l-.804.191V9.48l.804.193v.192H8.325v-.192l.804-.192V2.243L5.97 9.997H5.57L1.474 2.242v7.033l1.073.398v.192H0v-.192l1.072-.398V.99L.268.797V.606h1.668c.253 0 .477.03.655.088a1.683 1.683 0 01.865.59c.104.133.194.295.283.457l2.919 5.53L8.89 1.74c.075-.19.15-.353.254-.485.09-.133.208-.25.342-.354a1.25 1.25 0 01.492-.22c.193-.045.432-.074.73-.074h1.43z" fill="#40DDB6"/><path d="M16.903 3.068c.55 0 1.057.074 1.49.236a3.31 3.31 0 011.116.693c.312.31.535.678.699 1.105.163.428.237.93.237 1.475s-.074 1.047-.238 1.474a3.27 3.27 0 01-.701 1.107c-.314.31-.686.53-1.118.693-.432.162-.938.236-1.49.236-.55 0-1.057-.074-1.489-.236a3.313 3.313 0 01-1.116-.693 3.057 3.057 0 01-.7-1.106c-.164-.426-.239-.928-.239-1.473 0-.546.075-1.047.239-1.475a3.27 3.27 0 01.7-1.105c.312-.31.685-.531 1.116-.693.432-.162.924-.236 1.49-.236zm0 6.767a.848.848 0 00.461-.147c.15-.104.283-.266.403-.516.119-.25.223-.575.297-.988a9.42 9.42 0 00.12-1.592 9.17 9.17 0 00-.12-1.593c-.074-.414-.178-.753-.297-.989-.12-.234-.254-.411-.403-.515a.78.78 0 00-.461-.147.848.848 0 00-.462.147c-.148.104-.282.266-.4.516a3.93 3.93 0 00-.299.99c-.073.427-.118.958-.118 1.592 0 .648.045 1.18.12 1.592.074.413.178.752.297.988.118.236.252.412.401.516a.898.898 0 00.463.147z" fill="#40DDB6"/><path d="M26.955.606c.804 0 1.206.398 1.206 1.194v7.696l.805.192v.192H27.76c-.329 0-.582-.045-.775-.148a1.69 1.69 0 01-.462-.34 1.448 1.448 0 01-.298-.5c-.12.236-.268.427-.447.604-.149.148-.357.28-.61.413-.253.132-.551.19-.894.19-.387 0-.745-.073-1.072-.22a2.225 2.225 0 01-.864-.664 3.323 3.323 0 01-.58-1.09c-.15-.443-.21-.945-.21-1.534 0-.59.075-1.091.21-1.534.148-.442.342-.796.61-1.09a2.42 2.42 0 01.923-.664c.359-.147.76-.221 1.207-.221.239 0 .447.03.64.074.194.059.358.117.492.191.163.074.297.162.416.266v-2.58l-.804-.192V.65h1.713V.606zm-.938 3.39a1.75 1.75 0 00-.313-.264 2.375 2.375 0 00-.328-.192.8.8 0 00-.372-.074.93.93 0 00-.477.133c-.149.087-.268.235-.387.456-.104.22-.193.545-.253.943-.06.412-.09.928-.09 1.577 0 .634.03 1.135.09 1.533.06.398.134.708.238.93.09.22.194.382.328.456.12.074.238.118.357.118.209 0 .387-.059.536-.162.15-.103.268-.236.373-.369.118-.162.222-.339.311-.53V3.997h-.014z" fill="#40DDB6"/><path d="M33.448 10.1c-1.147 0-2.04-.31-2.666-.928-.64-.62-.953-1.49-.953-2.58 0-.546.074-1.047.237-1.475.164-.427.388-.796.67-1.106.284-.308.626-.53 1.043-.692a3.553 3.553 0 011.34-.235c.507 0 .953.073 1.34.206.403.146.73.338 1.013.574s.492.516.64.84c.15.325.224.664.224 1.032 0 .118 0 .236-.015.325-.015.09-.03.178-.044.251-.03.09-.045.163-.075.222-.387.074-.804.148-1.25.192-.373.06-.805.103-1.297.133-.49.03-.997.059-1.533.059 0 .545.044 1.002.119 1.37.074.37.193.664.327.87.148.222.312.37.506.458.193.088.417.132.64.132.268 0 .521-.044.76-.147.238-.104.446-.222.61-.384.179-.162.313-.354.417-.56.104-.207.15-.413.15-.634h.327c0 .265-.06.516-.18.766-.118.25-.297.472-.52.664-.224.191-.492.339-.805.457-.297.131-.64.19-1.027.19zm-1.34-3.523c.297 0 .565 0 .804-.015.238-.015.432-.03.596-.044.193-.015.342-.045.476-.06.015-.088.045-.19.06-.294.014-.103.03-.207.044-.324.015-.118.015-.251.015-.384 0-.398-.03-.737-.09-1.002a2.303 2.303 0 00-.237-.664c-.09-.162-.194-.295-.328-.354-.134-.059-.238-.103-.358-.103a.598.598 0 00-.357.133c-.12.088-.223.25-.328.472a4.59 4.59 0 00-.238.987c-.06.428-.06.973-.06 1.652z" fill="#40DDB6"/><path d="M41.966 3.525c-.268 0-.506.06-.714.162a2.438 2.438 0 00-.536.369c-.164.162-.298.339-.432.53v4.91l.804.192v.191h-3.753v-.192l.804-.192V3.658l-.805-.192v-.192h1.206c.314 0 .567.06.776.163.193.103.357.22.476.339.134.147.238.31.298.486a2.75 2.75 0 01.492-.53 3.02 3.02 0 01.625-.37c.253-.117.536-.161.879-.161.476 0 .834.119 1.072.325.238.221.342.53.342.929 0 .295-.09.545-.268.722-.178.177-.432.266-.73.266h-.208c-.074 0-.12-.015-.164-.015-.06-.015-.119-.015-.164-.044V3.525z" fill="#40DDB6"/><path d="M49.263 5.25c0-.295-.03-.56-.09-.781a1.472 1.472 0 00-.237-.532.73.73 0 00-.328-.31.824.824 0 00-.357-.103.922.922 0 00-.535.162 1.467 1.467 0 00-.373.37 3.07 3.07 0 00-.298.53v4.91l.805.19v.193h-3.754v-.192l.804-.192V3.658l-.804-.192v-.191h1.206c.313 0 .566.059.774.162.194.103.358.22.477.339.134.147.238.31.298.486.12-.22.269-.427.448-.604.148-.147.357-.28.595-.413.238-.133.551-.192.909-.192a2.7 2.7 0 011.057.192c.327.118.595.295.818.487.223.206.402.427.536.693.134.265.194.53.194.81v4.247l.804.191v.192H50.47c-.805 0-1.207-.398-1.207-1.194V5.25z" fill="#40DDB6"/><path d="M1.415 19.197v-.545h10.35v.545l-2.174.546v11.131h7.804V19.743l-2.174-.546v-.545h10.35v.545l-2.174.546v23l2.174.545v.545H15.22v-.56l2.174-.545V31.773H9.591v10.955l2.175.545v.546H1.415v-.547l2.174-.545v-23l-2.175-.53z" fill="#37393F"/><path d="M38.437 25.3c1.504 0 2.844.222 4.036.65a8.132 8.132 0 013.023 1.887 8.085 8.085 0 011.906 3.007c.432 1.18.655 2.507.655 3.996 0 1.49-.223 2.816-.655 3.995a8.027 8.027 0 01-1.906 2.993c-.834.826-1.847 1.46-3.023 1.887-1.192.428-2.532.65-4.036.65-1.504 0-2.845-.222-4.036-.65a8.13 8.13 0 01-3.022-1.887 8.146 8.146 0 01-1.906-2.993c-.432-1.18-.656-2.506-.656-3.995 0-1.49.224-2.816.656-3.996a8.203 8.203 0 011.906-3.007c.834-.84 1.846-1.46 3.023-1.887 1.192-.428 2.533-.65 4.037-.65zm0 18.327c.417 0 .819-.133 1.236-.398.417-.266.774-.723 1.102-1.387.327-.663.596-1.563.804-2.698s.312-2.58.312-4.334c0-1.754-.104-3.199-.313-4.334-.21-1.135-.478-2.035-.805-2.698-.328-.663-.7-1.12-1.102-1.386-.402-.265-.82-.398-1.236-.398-.417 0-.82.133-1.236.398-.416.265-.774.722-1.101 1.386-.329.663-.597 1.563-.806 2.698-.208 1.135-.312 2.58-.312 4.335 0 1.755.104 3.2.312 4.335.21 1.135.477 2.035.805 2.698.326.664.699 1.12 1.1 1.386.418.264.82.397 1.237.397z" fill="#37393F"/><path d="M75.265 31.228c0-.855-.074-1.592-.223-2.167-.15-.574-.328-1.06-.566-1.43-.238-.368-.491-.633-.76-.81-.282-.162-.55-.25-.819-.25-.461 0-.863.147-1.22.442a5.798 5.798 0 00-.924.988c-.283.427-.55.914-.76 1.43v13.298l2.19.546v.545H62.026v-.546l2.174-.546v-11.5c0-.855-.074-1.592-.223-2.167-.149-.574-.328-1.06-.566-1.43-.237-.368-.49-.633-.758-.81-.283-.162-.551-.25-.82-.25-.461 0-.863.147-1.22.442a5.8 5.8 0 00-.924.988c-.298.427-.55.914-.76 1.43v13.298l2.175.546v.545H50.946v-.546l2.175-.546V26.923l-2.174-.545v-.546h3.262c.849 0 1.549.148 2.085.428.55.28.968.604 1.295.929.358.411.626.854.804 1.325.313-.604.7-1.135 1.162-1.621a7.203 7.203 0 011.52-1.12c.61-.34 1.34-.502 2.218-.502 1.445 0 2.71.324 3.753.958 1.057.634 1.861 1.46 2.412 2.462.313-.619.7-1.18 1.162-1.695a7.368 7.368 0 011.518-1.18c.61-.353 1.34-.545 2.219-.545a7.71 7.71 0 012.725.472 6.55 6.55 0 012.13 1.282 5.754 5.754 0 011.385 1.888c.327.722.491 1.489.491 2.3v11.5l2.174.545v.544h-4.72c-2.175 0-3.262-1.076-3.262-3.229v-9.347h-.015z" fill="#37393F"/><path d="M95.236 44.35c-3.098 0-5.51-.84-7.223-2.536-1.713-1.696-2.576-4.01-2.576-6.988 0-1.49.223-2.816.655-3.996a8.866 8.866 0 011.817-3.007 7.556 7.556 0 012.813-1.888c1.102-.427 2.309-.648 3.604-.648 1.355 0 2.577.191 3.649.575 1.072.383 1.995.9 2.74 1.548a6.795 6.795 0 011.727 2.285 6.54 6.54 0 01.596 2.786c0 .34-.016.635-.06.886-.045.25-.075.472-.134.663-.075.235-.134.442-.18.604-1.07.22-2.188.398-3.38.545-1.012.147-2.189.265-3.514.383a53.863 53.863 0 01-4.17.162c0 1.49.104 2.727.328 3.715.223.988.52 1.784.908 2.374.387.59.849 1.002 1.385 1.253a4.07 4.07 0 001.742.383c.73 0 1.415-.132 2.056-.398a5.535 5.535 0 001.668-1.061 5.276 5.276 0 001.132-1.503 3.76 3.76 0 00.417-1.71h.91c0 .722-.165 1.415-.493 2.079a5.357 5.357 0 01-1.4 1.784 7.065 7.065 0 01-2.174 1.238 8.397 8.397 0 01-2.844.472zm-3.634-9.524c.82 0 1.549-.015 2.174-.06.626-.044 1.162-.073 1.594-.117.506-.046.938-.105 1.31-.178.045-.236.104-.502.179-.796.044-.266.088-.56.118-.885a11 11 0 00.06-1.016c0-1.077-.09-1.976-.254-2.713-.163-.736-.387-1.326-.64-1.783-.253-.457-.55-.781-.864-.973-.327-.192-.655-.295-.968-.295-.312 0-.64.117-.968.338-.327.236-.61.664-.863 1.298-.253.633-.461 1.533-.64 2.683-.149 1.149-.238 2.653-.238 4.496z" fill="#37393F"/><path d="M120.865 43.45V28.87L107.85 18.665V43.45h13.015z" fill="#6B77E5"/><path d="M136.964 43.45V28.87l-12.808-10.204V43.45h12.808z" fill="#6B77E5"/></svg>