<svg width="18" height="18" viewBox="0 0 18 18" fill="none" xmlns="http://www.w3.org/2000/svg"><path d="M12.105 2.184A3.642 3.642 0 0114.62 3.19a3.376 3.376 0 011.044 2.424v6.856a3.376 3.376 0 01-1.046 2.42 3.642 3.642 0 01-2.515 1.007h-7.12A3.642 3.642 0 012.47 14.89a3.376 3.376 0 01-1.046-2.422V5.613a3.376 3.376 0 011.046-2.42 3.64 3.64 0 012.515-1.008h7.12zm0-1.37h-7.12C2.245.814 0 2.972 0 5.612v6.856c0 2.638 2.245 4.798 4.986 4.798h7.12c2.74 0 4.984-2.16 4.984-4.8V5.613c0-2.64-2.244-4.8-4.985-4.8z" fill="white"/><path d="M13.173 5.613c-.21 0-.417-.06-.593-.174a1.038 1.038 0 01-.393-.463.993.993 0 01-.06-.595c.04-.2.142-.382.29-.526a1.102 1.102 0 011.164-.223c.196.078.363.21.48.38a1.002 1.002 0 01-.13 1.3 1.1 1.1 0 01-.757.3zm-4.628.685c.564 0 1.114.16 1.583.462.468.302.833.73 1.05 1.23.214.502.27 1.054.16 1.586a2.713 2.713 0 01-.78 1.404 2.883 2.883 0 01-1.458.75 2.95 2.95 0 01-1.645-.156 2.828 2.828 0 01-1.278-1.01 2.67 2.67 0 01-.48-1.523c0-.726.3-1.423.835-1.937A2.908 2.908 0 018.545 6.3zm0-1.37a4.39 4.39 0 00-2.373.692A4.15 4.15 0 004.6 7.466a3.973 3.973 0 00-.244 2.377 4.07 4.07 0 001.17 2.106 4.326 4.326 0 002.186 1.124 4.425 4.425 0 002.468-.234 4.242 4.242 0 001.917-1.514c.47-.677.72-1.472.72-2.285a4.04 4.04 0 00-1.25-2.907A4.357 4.357 0 008.545 4.928z" fill="white"/></svg>