<svg width="72" height="72" viewBox="0 0 72 72" fill="none" xmlns="http://www.w3.org/2000/svg"><g id="Icon"><circle id="Ellipse 120" cx="36" cy="36" r="36" fill="#40DDB6"/><g id="Icon_2"><path id="Vector" d="M41.5 52.12H28.66c-2.34 0-4.23-1.89-4.23-4.23V27" stroke="white" stroke-width="2" stroke-miterlimit="10"/><path id="Vector_2" d="M21.58 19h21.7a4.12 4.12 0 014.12 4.12v9.27" stroke="white" stroke-width="2" stroke-miterlimit="10"/><path id="Vector_3" d="M24.42 26.28H19v-4.57c0-1.5 1.21-2.71 2.71-2.71s2.71 1.21 2.71 2.71v4.57z" stroke="white" stroke-width="2" stroke-miterlimit="10"/><path id="Vector_4" d="m52.32 40-1.22 1.82-.43 2.15-2.15.43-1.82 1.22-1.82-1.22-2.15-.43-.43-2.15L41.08 40l1.22-1.82.43-2.15 2.15-.43 1.82-1.22 1.82 1.22 2.15.43.43 2.15L52.32 40z" stroke="white" stroke-width="2" stroke-miterlimit="10"/><path id="Vector_5" d="M49.81 43.85v7.48l-3.1-2.08-3.1 2.08v-7.48" stroke="white" stroke-width="2" stroke-miterlimit="10"/><path id="Vector_6" d="M30.07 25.25h10.21" stroke="white" stroke-width="2" stroke-miterlimit="10"/><path id="Vector_7" d="M30.07 30.5h10.21" stroke="white" stroke-width="2" stroke-miterlimit="10"/><path id="Vector_8" d="M30.07 35.69h10.21" stroke="white" stroke-width="2" stroke-miterlimit="10"/><path id="Vector_9" d="M30.07 40.77h6.77" stroke="white" stroke-width="2" stroke-miterlimit="10"/><path id="Vector_10" d="M30.07 45.96h6.77" stroke="white" stroke-width="2" stroke-miterlimit="10"/></g></g></svg>