<svg width="152" height="47" viewBox="0 0 152 47" fill="none" xmlns="http://www.w3.org/2000/svg"><path d="m21.837 9.85 1.117-.237c.282 0 .52.06.684.177.164.118.254.236.254.34 0 .102-.03.264-.075.456s-.461 2.167-1.236 5.897c-.773 3.73-1.34 6.517-1.697 8.345 1.728-2.33 3.753-5.19 6.062-8.595 2.308-3.406 3.663-5.662 4.05-6.782.12-.353.283-.618.477-.81.193-.192.372-.31.521-.34.15-.029.387-.058.7-.058s.685.074 1.117.206c.432.133.655.354.655.679 0 .59-.893 2.314-2.666 5.145-1.773 2.83-3.813 5.838-6.106 9.023-2.294 3.184-4.2 5.705-5.734 7.563-.268.325-.61.502-.998.502-.387 0-.804-.074-1.236-.207-.432-.133-.655-.368-.655-.722 0-1.105.984-6.442 2.95-15.981-1.683 2.151-3.723 5.16-6.12 9.007-2.503 3.98-3.918 6.458-4.245 7.401-.18.575-.387.914-.626 1.003a1.264 1.264 0 01-.522.104l-1.206.133a1.17 1.17 0 01-.656-.192c-.193-.133-.297-.265-.297-.413-.001-.398.565-1.607 1.681-3.612 1.118-2.005 2.444-4.187 3.948-6.546a124.603 124.603 0 014.706-6.87c1.638-2.227 2.904-3.73 3.797-4.482a.895.895 0 01.627-.236l.73.103z" fill="#37393F"/><path d="M39.736 19.845c.775 0 1.162.265 1.162.781 0 .28-.06.487-.194.62-.133.132-.416.56-.848 1.312-.432.737-.909 1.68-1.43 2.845-.521 1.15-.864 2.138-1.013 2.949a1.56 1.56 0 00-.044.427c-.001.56.148.825.46.825.313 0 .67-.147 1.087-.427.417-.295.79-.59 1.117-.93.328-.324.64-.663.953-1.002.313-.339.492-.545.552-.59a.445.445 0 01.267-.073c.193 0 .312.147.357.442.045.295.06.59.06.914 0 .323-.03.53-.09.648-.298.575-.938 1.268-1.95 2.079-.998.81-1.922 1.209-2.74 1.209-.82 0-1.43-.25-1.803-.738-.371-.486-.58-1.046-.58-1.636 0-.605.105-1.12.313-1.578a13.528 13.528 0 01-2.904 2.772c-1.103.752-1.982 1.135-2.682 1.135-.7.001-1.25-.205-1.697-.618-.565-.516-.833-1.223-.833-2.138 0-.914.208-1.828.625-2.757.417-.914.953-1.769 1.624-2.52.67-.767 1.414-1.46 2.219-2.08 1.682-1.312 3.246-1.96 4.676-1.96.552 0 .998.088 1.34.265.343.177.567.413.656.678.238-.368.447-.59.626-.693.134-.118.387-.162.715-.162zm-2.025 1.68c-1.741 0-3.543.96-5.405 2.876a13.666 13.666 0 00-1.831 2.463c-.566.958-.834 1.607-.834 1.96 0 .355.104.531.312.531.283 0 1.073-.56 2.383-1.666 1.31-1.105 2.174-1.93 2.591-2.462.477-.59 1.4-1.828 2.785-3.7z" fill="#37393F"/><path d="m51.324 11.854.625.148c.088 0 .178.044.237.132a.396.396 0 01.104.25c.001.075-.103.296-.326.65-.223.354-.462.752-.76 1.194-.297.442-.446.693-.461.737.79-.059 1.355-.088 1.682-.088.328 0 .552.03.686.073.12.045.269.177.417.384.164.206.298.368.432.472.133.103.193.265.193.471 0 .207-.134.398-.387.53a2.052 2.052 0 01-.834.266c-2.368.236-3.664.354-3.902.37-.82 1.252-1.98 3.198-3.455 5.837-1.474 2.64-2.264 4.305-2.353 4.969a5.13 5.13 0 00-.06.736c0 .398.21.59.626.59.417 0 .879-.163 1.385-.472.506-.324.983-.663 1.4-1.032 1.147-1.003 1.757-1.519 1.832-1.519.268 0 .402.457.402 1.357 0 .486-.224.929-.685 1.327-1.028.87-1.892 1.533-2.592 1.975-.7.442-1.4.664-2.114.664a2.04 2.04 0 01-.432-.045c-.82-.146-1.415-.44-1.787-.883-.387-.443-.566-1.032-.566-1.77 0-.736.224-1.65.67-2.712a33.534 33.534 0 011.669-3.391 118.15 118.15 0 013.29-5.5l-.58.074c-1.177.133-1.862.192-2.056.192h-.134c-.298 0-.58-.059-.849-.177-.267-.118-.416-.265-.416-.427 0-.177.075-.34.224-.502.149-.162.238-.295.268-.383.074-.22.342-.47.804-.736s.804-.413 1.042-.428c.239-.014.462-.03.685-.044.224-.015.462-.015.73-.03.268-.014.477-.014.626-.03l1.37-.058c.849-1.268 1.444-2.094 1.757-2.447.328-.369.506-.56.55-.59.046-.03.15-.06.314-.06l.73-.073z" fill="#37393F"/><path d="M60.481 26.582c.195 0 .314.148.359.443.043.295.058.59.058.914 0 .323-.03.53-.09.647-.297.56-.937 1.254-1.935 2.065-.998.81-1.951 1.223-2.845 1.223a2.664 2.664 0 01-1.534-.486c-.461-.326-.7-.9-.7-1.712 0-.81.224-1.621.656-2.403-2.532 3.14-4.498 4.704-5.942 4.704-.566-.001-1.028-.208-1.385-.606-.358-.398-.521-.81-.521-1.253 0-.427.06-.87.178-1.326.12-.457.253-.87.388-1.239.133-.368.342-.81.61-1.341.268-.53.477-.914.596-1.165.119-.251.342-.605.64-1.092.298-.486.67-1.15 1.147-1.976.477-.825.865-1.444 1.177-1.842.313-.398.61-.605.909-.605.298 0 .55.118.774.354.223.235.343.441.343.589 0 .146-.343.824-1.028 2.033-2.01 3.612-3.023 5.706-3.023 6.31 0 .148.06.222.164.222.491 0 1.712-1.047 3.648-3.14 1.936-2.094 3.068-3.436 3.38-4.026.314-.59.597-1.092.894-1.49.283-.398.507-.648.656-.737.432-.28.997-.427 1.697-.457.12 0 .195 0 .255.015.06.016.134.104.208.251.074.149.12.282.12.385-.09.28-.492 1.032-1.222 2.256-.714 1.224-1.116 1.917-1.19 2.064-1.207 2.463-1.802 4.07-1.802 4.807 0 .428.164.635.491.635.595-.074 1.31-.546 2.144-1.4.312-.31.61-.635.908-.96.298-.324.492-.515.551-.56a.36.36 0 01.268-.103z" fill="#37393F"/><path d="M64.905 23.089c2.397-2.7 4.452-4.056 6.135-4.056.417 0 .76.118 1.028.369.268.25.402.56.402.958 0 .4-.283 1.048-.85 1.977a31.846 31.846 0 01-1.563 2.33c-.253.323-.536.486-.863.486-.313 0-.566-.118-.745-.354a1.297 1.297 0 01-.27-.812c0-.693.373-1.49 1.133-2.36l-.03-.028c-.343.03-1.162.692-2.502 1.96a98.58 98.58 0 00-3.394 3.436 53.367 53.367 0 00-3.038 3.7c-.313.428-.581.649-.805.649-.223 0-.506-.074-.863-.206-.358-.134-.581-.237-.656-.296-.074-.06-.119-.163-.119-.31 0-.133.045-.31.12-.486.074-.192.238-.458.446-.797.21-.338.552-.898 1-1.665.446-.766 1.13-1.93 2.07-3.48.937-1.547 1.488-2.49 1.682-2.815.387-.664.7-1.15.953-1.445.462-.575 1.236-.855 2.323-.855.238 0 .372.147.372.457 0 .472-.446 1.371-1.325 2.669l-.64.973z" fill="#37393F"/><path d="M81.331 20.022c.001.664-.267 1.253-.818 1.755-.55.5-1.161.752-1.861.752-.223-.001-.372-.06-.446-.164-.075-.103-.104-.25-.104-.412 0-.163.015-.34.06-.502-.373.118-.775.31-1.222.56-.447.251-.998.62-1.653 1.121-.655.501-.983.855-.983 1.106 0 .073.12.117.358.117s.61-.089 1.102-.25c.49-.163.848-.252 1.042-.252.194 0 .328.015.387.03.135.074.27.221.433.457.15.236.223.428.223.56 0 .133-.133.31-.402.53a2.956 2.956 0 01-.893.502c-.342.118-.565.207-.67.266-2.144 1.194-3.216 2.005-3.216 2.447 0 .781.67 1.18 2.025 1.18.863 0 1.742-.266 2.605-.811a18.363 18.363 0 002.01-1.416c.597-.472.969-.766 1.133-.884.164-.118.283-.163.357-.163.268 0 .402.295.402.885 0 .59-.03.973-.104 1.15-.074.192-.268.413-.61.693-2.175 1.755-4.245 2.64-6.18 2.64-1.043 0-1.862-.147-2.488-.427-1.147-.517-1.713-1.298-1.713-2.36 0-1.385.969-2.447 2.92-3.154-.388-.178-.64-.385-.745-.665-.12-.265-.164-.693-.164-1.283s.283-1.208.834-1.872a6.466 6.466 0 012.04-1.622c1.787-.958 3.396-1.43 4.796-1.43.342 0 .67.074 1.027.236.358.162.521.383.521.678z" fill="#37393F"/><path d="M116.09 9.76h.193c.06 0 .105 0 .12.015.014.015.03.015.06.03.03 0 .044.015.073.044a.86.86 0 00.21.132c.118.088.178.191.178.31 0 .117-.12.368-.358.751-.238.384-.85 1.312-1.846 2.816a324.63 324.63 0 00-6.12 9.612c-3.114 5.13-4.692 7.71-4.722 7.74a.284.284 0 00-.06.089c-.014.06-.044.09-.12.09l-.207-.045-.416.103-.238-.044-.254.044h-.09l-.848.118c-.506 0-.76-.177-.76-.516 0-.147.045-.324.135-.53.31-.738 1.905-3.407 4.764-8.036a236.6 236.6 0 01-5.57.074l-3.276-.015a182.89 182.89 0 00-2.219 3.642c-2.026 3.435-3.098 5.16-3.232 5.19-.134.029-.239.058-.328.058-.09 0-.164-.044-.223-.147-.075-.089-.12-.148-.15-.148a.432.432 0 00-.163.06c-.075.044-.194.058-.357.058l-.358-.014-.135-.089c-.015 0-.03.015-.045.044-.014.03-.06.045-.119.045-.43 0-.654-.177-.654-.546 0-.236.09-.56.253-.958.178-.398.401-.826.684-1.283.283-.457.998-1.563 2.174-3.288 1.162-1.725 1.743-2.594 1.743-2.61-.193-.014-.416-.014-.67-.029-.52 0-.878-.014-1.101-.059-.582-.104-.984-.576-1.193-1.416-.119-.413-.163-.678-.149-.81 0-.266.12-.414.358-.414l.402.103c.208.015.685.03 1.46.074.774.044 1.325.06 1.667.06l.864-.03a190.825 190.825 0 014.75-6.974c-1.34 1.091-2.83 1.637-4.468 1.637-.774 0-1.445-.177-1.995-.546-.566-.369-.835-.84-.835-1.4s.21-1.003.64-1.342c.433-.325.835-.487 1.222-.487.387 0 .58.06.58.177 0 .044-.059.089-.163.133-.103.059-.163.103-.163.147 0 .163.179.31.536.428.358.118.76.191 1.207.191.446.002.982-.131 1.638-.382.655-.25 1.325-.59 2.025-.988a47.14 47.14 0 002.323-1.4c.328-.162.626-.236.924-.236.297 0 .49.03.625.103a.93.93 0 01.283.192c.06.058.134.146.194.25.074.103.134.191.208.235.06.06.104.118.104.192s-.044.177-.12.34c-.073.146-.46.766-1.16 1.842-.7 1.075-1.61 2.446-2.71 4.112a284.486 284.486 0 00-2.413 3.686c2.726 0 5.66-.044 8.817-.147 3.842-6 5.867-9.14 6.076-9.435.208-.295.402-.486.58-.575.18-.088.388-.133.64-.133l1.297.104z" fill="#37393F"/><path d="M121.064 19.816c.313 0 .625.132.938.413.328.279.477.691.477 1.252 0 .56-.195 1.282-.597 2.182a14.517 14.517 0 01-1.638 2.727 23.587 23.587 0 01-2.28 2.596 12.126 12.126 0 01-2.68 1.99c-.967.516-1.83.782-2.62.782-.79 0-1.415-.25-1.892-.737-.476-.486-.714-1.164-.714-2.034 0-.87.222-1.843.654-2.89a10.31 10.31 0 011.668-2.8 16.252 16.252 0 012.22-2.183c1.652-1.327 3.11-1.976 4.362-1.976.566 0 .983.133 1.266.413.104.089.15.177.15.236v.089c.163-.06.386-.06.684-.06zm-1.534 2.005h-.104c-.358 0-.536-.25-.536-.766-.745.236-1.52.663-2.338 1.268a11.18 11.18 0 00-2.19 2.153c-1.31 1.65-1.965 3.051-1.98 4.187 0 .56.208.84.625.84s1.043-.28 1.862-.81c.818-.532 1.637-1.313 2.456-2.33.804-1.003 1.415-1.887 1.817-2.625.402-.737.61-1.238.61-1.518-.014-.267-.09-.4-.223-.4z" fill="#37393F"/><path d="m122.15 31.418-.744-.03h-.268a1.033 1.033 0 01-.327-.176c-.12-.088-.208-.162-.268-.192-.06-.03-.09-.118-.09-.22 0-.104.046-.296.12-.546 1.98-4.32 3.902-7.785 5.764-10.365.208-.28.536-.502.982-.65a4.237 4.237 0 011.326-.22c.253 0 .387.19.387.59 0 .117-.044.264-.118.441-.075.193-.283.488-.61.915-.328.428-.715.914-1.162 1.445-.447.53-.7.855-.76.944 1.4-1.43 2.65-2.492 3.783-3.2 1.132-.692 1.936-1.046 2.442-1.046.507 0 .894.147 1.162.427.268.28.402.59.402.914s-.03.604-.076.81a2.69 2.69 0 01-.253.678c-.118.236-.222.443-.31.605-.09.162-.24.383-.433.649-.21.265-.343.457-.417.56-.075.103-.24.295-.477.575-.238.28-.372.442-.387.472.283-.281.685-.694 1.19-1.255.508-.56.94-1.017 1.297-1.385.357-.37.79-.797 1.325-1.268.536-.472 1.028-.855 1.475-1.136 1.102-.678 2.22-1.032 3.35-1.032.388 0 .715.118.983.369.268.25.402.53.402.87 0 .339-.417 1.15-1.236 2.418-.82 1.269-1.653 2.551-2.472 3.834-.82 1.283-1.236 2.094-1.236 2.433 0 .457.09.737.253.825.18.089.388.118.626.103.238-.014.595-.177 1.027-.471.447-.295.834-.59 1.177-.914.566-.502 1.072-.988 1.564-1.46a.498.498 0 01.343-.133c.194 0 .313.148.357.443.045.294.06.59.06.914s-.03.53-.09.648c-.297.56-.952 1.254-1.95 2.08-1.013.81-1.98 1.223-2.904 1.223-.12 0-.194 0-.238-.015-1.043-.103-1.773-.383-2.175-.855-.402-.472-.595-1.032-.595-1.666 0-.635.223-1.431.67-2.345.447-.914.923-1.755 1.46-2.492.535-.737 1.012-1.415 1.46-2.02.445-.604.67-.928.67-.973 0-.044-.046-.073-.12-.073-.313 0-1.013.5-2.115 1.518-1.862 1.725-3.47 3.391-4.825 4.983-.358.428-1.206 1.49-2.532 3.215-.15.206-.402.31-.73.31-.327 0-.67-.06-1.027-.193-.36-.132-.537-.294-.537-.486 0-.103.804-1.519 2.427-4.246 1.623-2.728 2.428-4.217 2.428-4.453 0-.25-.15-.368-.447-.368s-.922.442-1.86 1.327c-2.577 2.432-4.573 4.865-5.987 7.268-.09.148-.268.369-.536.664-.27.294-.507.412-.596.412z" fill="#37393F"/><path d="M151.682 20.022c0 .664-.268 1.253-.82 1.755-.55.5-1.16.752-1.86.752-.224-.001-.373-.06-.447-.164-.075-.103-.105-.25-.105-.412 0-.163.015-.34.06-.502-.372.118-.775.31-1.22.56-.448.251-1 .62-1.654 1.121-.656.501-.983.855-.983 1.106 0 .073.12.117.357.117.238 0 .61-.089 1.102-.25.492-.163.85-.252 1.043-.252.193 0 .327.015.387.03.134.074.268.221.432.457.15.236.223.428.223.56 0 .133-.134.31-.402.53a2.954 2.954 0 01-.894.502c-.34.118-.564.207-.67.266-2.143 1.194-3.215 2.005-3.215 2.447 0 .781.67 1.18 2.025 1.18.864 0 1.742-.266 2.606-.811a18.36 18.36 0 002.01-1.416 50.18 50.18 0 011.132-.884c.164-.118.283-.163.358-.163.268 0 .402.295.402.885 0 .59-.03.973-.104 1.15-.075.192-.268.413-.61.693-2.175 1.755-4.245 2.64-6.18 2.64-1.044 0-1.863-.147-2.488-.427-1.147-.517-1.713-1.298-1.713-2.36 0-1.385.968-2.447 2.92-3.154-.388-.178-.64-.385-.746-.665-.12-.265-.163-.693-.163-1.283s.283-1.208.834-1.872a6.467 6.467 0 012.04-1.622c1.787-.958 3.395-1.43 4.795-1.43.343 0 .67.074 1.028.236.358.162.522.383.522.678z" fill="#37393F"/><path d="M.72 35.502c3.916 1.622 7.907 2.875 11.973 3.833a91.52 91.52 0 0012.256 2.153c2.054.28 4.125.31 6.165.501 2.07.014 4.125.176 6.18.058l3.083-.074c1.027-.014 2.055-.147 3.082-.206 1.028-.088 2.056-.133 3.068-.265l3.053-.428c4.096-.442 8.073-1.386 12.034-2.52 4.006-1.092 7.789-2.537 11.795-4.04 4.094-1.49 8.532-2.463 13.03-1.99 2.218.28 4.452.987 6.27 2.284 1.83 1.282 3.141 3.11 3.975 5.027-1.25-1.71-2.814-3.111-4.616-3.98-1.803-.87-3.784-1.225-5.75-1.166-3.976.06-7.893 1.372-11.57 3.024a99.242 99.242 0 01-11.87 4.85c-4.11 1.312-8.355 2.36-12.659 2.89-8.562 1.12-17.333 1.135-25.792-.56-4.244-.767-8.384-1.961-12.39-3.48-3.976-1.577-7.863-3.42-11.318-5.912z" fill="#40DDB6"/><path d="M143.134 10.955c-3.32-1.4-6.702-2.492-10.127-3.347-3.41-.9-6.865-1.533-10.335-1.975-1.728-.266-3.485-.325-5.213-.531-1.743-.044-3.47-.221-5.213-.148-.864.015-1.742.015-2.606 0-.863 0-1.74.089-2.605.118-.864.06-1.743.074-2.606.163l-2.593.31c-3.47.28-6.835.987-10.2 1.857-3.41.81-6.643 1.96-10.083 3.11-3.53 1.165-7.356 1.873-11.199 1.342-1.89-.31-3.797-.973-5.301-2.152-1.534-1.165-2.577-2.757-3.217-4.423 1.057 1.458 2.368 2.653 3.872 3.39 1.503.737 3.156 1.046 4.81 1.032 3.335 0 6.64-1.062 9.768-2.389 3.187-1.503 6.687-2.83 10.172-3.921 3.514-1.047 7.178-1.843 10.84-2.227 7.313-.766 14.79-.59 21.953 1.091 3.59.752 7.088 1.902 10.44 3.318 3.365 1.444 6.61 3.125 9.44 5.38z" fill="#6B77E5"/></svg>