<svg width="105" height="99" viewBox="0 0 105 99" fill="none" xmlns="http://www.w3.org/2000/svg"><path d="M89.335 83.023a.45.45 0 00.393-.276c2.13-5.197 5.321-20.707 5.339-24.798.08-17.669-1.64-22.188-7.318-37.145l-.973-2.559a.453.453 0 00-.58-.267.452.452 0 00-.267.579l.972 2.557c5.633 14.841 7.336 19.325 7.256 36.823-.018 4.029-3.174 19.325-5.277 24.46-.097.23.019.498.25.587a.55.55 0 00.205.036z" fill="#40DDB6"/><path d="M94.149 62.896a.452.452 0 00.401-.606c-.964-2.622-3.3-5.002-4.85-6.589l-.329-.338c-.855-.874-2.851-3.218-3.43-4.28a78.47 78.47 0 00-.776-1.38c-1.712-3.022-2.737-4.85-3.156-9.841a.435.435 0 00-.49-.41.445.445 0 00-.41.49c.437 5.188 1.56 7.184 3.271 10.206.24.427.499.882.766 1.372.633 1.14 2.674 3.547 3.583 4.474l.33.34c1.586 1.613 3.752 3.823 4.643 6.257a.456.456 0 00.446.303z" fill="#40DDB6"/><path d="M94.496 45.47a.444.444 0 00.375-.25 347.222 347.222 0 003.932-7.97c1.372-2.887 2.656-5.954 1.907-8.993a.45.45 0 10-.874.214c.677 2.755-.544 5.652-1.845 8.389a344.65 344.65 0 01-3.922 7.94.445.445 0 00.197.607.38.38 0 00.231.062z" fill="#40DDB6"/><path d="M88.178 17.629a5.838 5.838 0 10-8.733-7.753 5.838 5.838 0 008.733 7.752z" fill="#40DDB6"/><path d="M94.817 24.914a4.454 4.454 0 004.698 4.19 4.454 4.454 0 004.19-4.698 4.454 4.454 0 00-4.698-4.19 4.448 4.448 0 00-4.19 4.698z" fill="#40DDB6"/><path d="M76.891 36.467a4.454 4.454 0 008.896-.508 4.454 4.454 0 00-4.696-4.19 4.445 4.445 0 00-4.199 4.697z" fill="#40DDB6"/><path d="M82.329 33.008a.44.44 0 00.418-.384c.124-.829.552-2.496.909-3.298a.45.45 0 00-.232-.597.45.45 0 00-.597.23c-.392.892-.847 2.63-.972 3.54a.454.454 0 00.384.516c.026-.008.062 0 .089-.008z" fill="#40DDB6"/><path d="M80.003 33.373a.48.48 0 00.366-.214.46.46 0 00-.153-.625c-.027-.026-.223-.25-.374-1.497-.036-.339 0-.65.044-.98.036-.295.08-.59.072-.928a.463.463 0 00-.465-.445c-.223 0-.446.214-.446.463a4.48 4.48 0 01-.063.793c-.045.376-.098.76-.045 1.205.152 1.265.393 1.916.802 2.166.08.045.17.063.26.063z" fill="#40DDB6"/><path d="M79.138 34.158a.384.384 0 00.214-.07.45.45 0 00.143-.625c-1.061-1.694-1.944-2.745-2.692-3.227a.45.45 0 00-.624.143.45.45 0 00.141.623c.625.4 1.436 1.39 2.408 2.941.09.143.25.223.41.214z" fill="#40DDB6"/><path d="M100.576 21.84a.426.426 0 00.392-.358c.107-.766.508-2.3.838-3.048a.422.422 0 00-.214-.553.422.422 0 00-.553.215c-.358.82-.776 2.425-.9 3.263a.414.414 0 00.355.472.202.202 0 00.08.01z" fill="#40DDB6"/><path d="M99.336 22.115a.418.418 0 00.187-.776c-.026-.026-.205-.231-.347-1.38-.045-.394-.01-.742.035-1.223.028-.232.046-.49.073-.802a.42.42 0 10-.838-.054 13 13 0 01-.071.777c-.054.508-.09.918-.036 1.4.134 1.167.357 1.764.74 1.996.09.053.178.07.258.062z" fill="#40DDB6"/><path d="M98.534 22.837a.42.42 0 00.33-.642c-.972-1.56-1.783-2.53-2.479-2.968a.426.426 0 00-.579.125.426.426 0 00.125.58c.58.365 1.33 1.283 2.22 2.71.09.133.232.204.384.195z" fill="#40DDB6"/><path d="M81.099 9.538a.505.505 0 00.222-.072.448.448 0 00.124-.623c-.472-.705-1.257-2.22-1.533-3.058a.45.45 0 00-.57-.285.45.45 0 00-.285.57c.302.918 1.132 2.514 1.64 3.28a.46.46 0 00.4.188z" fill="#40DDB6"/><path d="M80.412 10.411a.448.448 0 00.107-.016.44.44 0 00.356-.526.445.445 0 00-.526-.357c-.045.001-.339-.034-1.284-.863-.258-.223-.436-.482-.624-.758-.17-.242-.338-.491-.57-.74a.444.444 0 00-.642-.019.444.444 0 00-.018.643c.196.205.34.42.49.633.214.312.437.633.776.927.882.766 1.48 1.105 1.934 1.078z" fill="#40DDB6"/><path d="M80.341 11.57a.445.445 0 00.411-.33.454.454 0 00-.31-.562c-1.917-.543-3.28-.74-4.154-.597a.46.46 0 00-.375.527c.046.25.277.42.527.374.73-.123 1.997.073 3.762.572.043.009.088.018.141.018z" fill="#40DDB6"/><path d="M92.116 70.793c-1.052-.035-2.942-.695-3.628-1.675-.143-.205-.865-1.275-1.016-2.077-.17-.926-.17-1.702 0-2.78.24-1.498.294-1.56.552-1.658.16-.063.357-.134 1.756.837 1.667 1.15 3.236 3.957 2.987 6.658a.435.435 0 01-.179.32.447.447 0 01-.419.384c-.027-.009-.036-.009-.054-.009zm-3.753-6.39c-.16.98-.16 1.648-.009 2.468.08.456.5 1.196.874 1.73.41.58 1.72 1.142 2.638 1.266.152-2.29-1.212-4.715-2.603-5.678a23.205 23.205 0 00-.775-.49c-.045.25-.098.544-.125.704z" fill="#40DDB6"/><path d="M82.9 54.223c-.223-.018-1.364-.152-2.006-.517-.722-.42-1.257-.874-1.88-1.614-.848-1.007-.892-1.078-.803-1.337.055-.142.117-.312 1.588-.704 1.756-.462 4.564.108 6.24 1.846.08.09.115.196.115.303a.397.397 0 01-.009.534c-.58.633-1.907 1.435-2.95 1.489a1.623 1.623 0 01-.294 0zm-2.888-3.388c-.107.027-.482.143-.785.241.116.143.259.312.41.49.57.678 1.025 1.061 1.676 1.436.357.205 1.096.356 1.676.41.632.07 1.764-.5 2.388-1.052-1.471-1.426-3.904-1.908-5.366-1.525z" fill="#40DDB6"/><path d="M85.618 51.967a.365.365 0 01-.205-.25c-.66-2.326.277-5.035 1.56-6.32 1.07-1.078 1.266-1.042 1.409-1.015.25.044.303.098.748 1.363.321.919.446 1.605.446 2.443 0 .73-.472 1.783-.561 1.988-.446.971-1.997 1.854-2.915 2.05-.018.009-.045.009-.063.009a.395.395 0 01-.419-.268zm1.917-5.999c-1.07 1.07-1.88 3.414-1.382 5.402.794-.258 1.854-.962 2.113-1.533.24-.526.49-1.24.49-1.65 0-.748-.107-1.336-.4-2.165a18.314 18.314 0 00-.224-.606c-.232.214-.526.481-.597.552z" fill="#40DDB6"/><path d="M94.72 54.312a.408.408 0 01-.33-.428.385.385 0 01-.09-.312c.321-2.389 2.256-4.51 3.94-5.179 1.418-.561 1.57-.454 1.694-.374.214.142.24.213.15 1.55-.07.972-.221 1.65-.56 2.416-.285.65-1.07 1.39-1.31 1.604-.544.481-1.534.731-2.398.776-.41.026-.803.008-1.097-.054zm3.823-5.17c-1.408.553-3.084 2.39-3.414 4.413.828.07 2.076-.143 2.549-.57.427-.393.944-.946 1.104-1.33.303-.685.437-1.265.5-2.147.008-.188.026-.428.035-.642-.313.107-.678.24-.777.276z" fill="#40DDB6"/><path d="M97.714 38.846a.365.365 0 01-.152-.472.362.362 0 01.018-.304c.998-1.97 3.29-3.235 4.956-3.324h.053c1.4-.063 1.515.08 1.595.187.152.196.134.276-.34 1.4-.355.828-.694 1.372-1.22 1.934-.463.499-1.435.918-1.622.998-.214.09-.464.143-.74.152-.9.062-1.98-.232-2.55-.57zm4.893-3.352c-1.426.08-3.414 1.15-4.314 2.817.704.322 1.863.51 2.398.278.49-.206 1.106-.544 1.365-.82.472-.509.766-.972 1.087-1.73.09-.214.17-.4.223-.543-.303-.01-.66-.01-.758 0z" fill="#40DDB6"/><path d="M97.268 38.614c-.855-.15-2.326-.89-2.78-1.764-.099-.188-.571-1.132-.607-1.81-.035-.775.046-1.408.304-2.273.357-1.185.401-1.24.633-1.292.134-.036.303-.072 1.346.873 1.24 1.123 2.21 3.592 1.702 5.767a.36.36 0 01-.178.24.372.372 0 01-.338.268c-.02-.009-.055-.009-.082-.009zm-2.362-5.642c-.232.785-.312 1.328-.276 2.015.018.374.276 1.025.517 1.506.267.517 1.274 1.123 2.014 1.328.376-1.853-.471-3.983-1.505-4.928a13.565 13.565 0 00-.58-.481c-.053.188-.115.402-.169.562z" fill="#40DDB6"/><path d="M86.028 26.964c-.259-.124-1.141-.588-1.56-1.096-.49-.597-.802-1.159-1.105-2.006-.42-1.176-.41-1.239-.259-1.417.09-.107.205-.24 1.605-.09 1.666.17 3.912 1.579 4.794 3.629a.396.396 0 010 .303.373.373 0 01-.187.463c-.437.223-1.14.402-1.836.446-.534.01-1.06-.044-1.452-.232zm-1.4-3.877a16.083 16.083 0 00-.757-.045c.054.17.125.375.188.562.276.766.544 1.248.98 1.783.241.294.83.668 1.31.9.527.258 1.694.142 2.408-.134-.785-1.711-2.737-2.924-4.128-3.066z" fill="#40DDB6"/><path d="M89.006 25.966a.37.37 0 01-.152-.258c-.25-2.22.999-4.555 2.354-5.527 1.132-.819 1.319-.757 1.435-.712.231.08.258.16.48 1.355.161.882.17 1.524.046 2.29-.108.651-.643 1.49-.813 1.73-.552.82-2.094 1.39-2.959 1.435a.366.366 0 01-.392-.312zm2.638-5.188c-1.132.82-2.228 2.835-2.059 4.725.758-.116 1.828-.597 2.157-1.088.304-.446.633-1.06.696-1.435.116-.686.107-1.23-.045-2.041a18.57 18.57 0 01-.107-.58l-.642.418z" fill="#40DDB6"/><path d="M92.58 70.259a.454.454 0 01-.098-.599.47.47 0 01.071-.355c1.578-2.202 4.609-3.29 6.614-3.058 1.694.188 1.8.384 1.88.526.135.25.126.34-.667 1.614-.58.927-1.088 1.515-1.828 2.094-.642.51-1.89.84-2.13.902a1.97 1.97 0 01-.41.062c-1.15.054-2.7-.597-3.432-1.185zm6.498-3.121c-1.693-.188-4.314.739-5.696 2.575.776.508 2.14.954 2.826.775.633-.16 1.426-.445 1.792-.73.66-.518 1.096-1.026 1.622-1.864.098-.15.24-.4.374-.615-.365-.06-.802-.123-.918-.141z" fill="#40DDB6"/><path d="M50.453 98.97c13.531 0 26.171-5.357 35.584-15.091l-1.506-1.463c-9.011 9.324-21.107 14.45-34.068 14.45-26.126 0-47.386-21.26-47.386-47.386 0-26.126 21.242-47.385 47.377-47.385 6.864 0 13.487 1.435 19.673 4.26L71 4.458C64.537 1.497 57.62 0 50.453 0 23.16 0 .963 22.195.963 49.49c0 27.293 22.196 49.48 49.49 49.48z" fill="#6B77E5"/><path d="M19.915 34.861a4.135 4.135 0 01-1.605-1.576 4.46 4.46 0 01-.597-2.273c0-.837.196-1.595.597-2.263a4.174 4.174 0 011.605-1.57 4.513 4.513 0 012.22-.56c.81 0 1.55.186 2.219.56a4.15 4.15 0 011.595 1.57c.391.668.579 1.426.579 2.264-.001.839-.198 1.596-.59 2.274a4.235 4.235 0 01-1.595 1.577 4.465 4.465 0 01-2.22.563 4.455 4.455 0 01-2.21-.562zm3.868-2.03c.41-.456.615-1.062.615-1.81 0-.758-.205-1.364-.615-1.819-.41-.453-.963-.676-1.649-.676-.695 0-1.248.223-1.658.677-.41.447-.615 1.062-.615 1.828.001.758.206 1.364.616 1.82.41.454.963.676 1.658.676.686-.008 1.24-.24 1.65-.695z" fill="#37393F"/><path d="m38.206 35.343-1.792-3.245h-.499v3.245H33.82V26.74h3.512c.678.001 1.257.117 1.73.358.48.24.838.561 1.07.971.23.41.356.873.356 1.38 0 .571-.16 1.08-.481 1.534-.321.455-.803.767-1.427.954l1.988 3.405h-2.362zm-2.29-4.733h1.3c.384 0 .67-.098.865-.285.188-.188.286-.455.286-.794 0-.329-.098-.578-.285-.774-.195-.188-.48-.285-.864-.285h-1.3v2.14z" fill="#37393F"/><path d="M53.635 29.46a1.542 1.542 0 00-.668-.66c-.295-.152-.633-.223-1.026-.223-.676 0-1.22.223-1.63.668-.41.446-.615 1.043-.615 1.783 0 .794.214 1.409.642 1.854.428.446 1.016.669 1.774.669.518 0 .954-.133 1.302-.391.357-.26.615-.634.776-1.125H51.53v-1.542h4.556v1.952a4.053 4.053 0 01-.793 1.462 4.238 4.238 0 01-1.417 1.088c-.57.276-1.222.419-1.935.419-.845 0-1.603-.187-2.272-.562a4.014 4.014 0 01-1.56-1.55c-.374-.66-.561-1.418-.561-2.265 0-.847.187-1.604.561-2.273a4.014 4.014 0 011.551-1.56c.66-.374 1.417-.561 2.264-.561 1.025 0 1.898.25 2.602.748.705.5 1.177 1.187 1.4 2.07h-2.29z" fill="#37393F"/><path d="M23.418 49.837h-3.21l-.516 1.515h-2.193l3.11-8.602h2.424l3.111 8.602h-2.22l-.507-1.515zm-.535-1.614-1.07-3.146-1.052 3.146h2.123z" fill="#37393F"/><path d="M40.915 51.36H38.82l-3.503-5.303v5.304h-2.094V42.76h2.094l3.503 5.33v-5.331h2.095v8.6z" fill="#37393F"/><path d="M50.65 42.759v8.6h-2.095V42.76h2.094z" fill="#37393F"/><path d="M18.265 60.791a3.97 3.97 0 011.534-1.559c.65-.373 1.398-.56 2.236-.56 1.025 0 1.899.267 2.62.811.732.536 1.213 1.276 1.463 2.203h-2.301a1.823 1.823 0 00-.732-.82 2.04 2.04 0 00-1.07-.285c-.642 0-1.167.222-1.569.677-.402.446-.598 1.052-.598 1.8 0 .75.196 1.355.597 1.801.4.446.926.677 1.568.677.401 0 .758-.089 1.07-.285a1.93 1.93 0 00.73-.82h2.3c-.24.927-.73 1.667-1.461 2.202-.731.535-1.605.802-2.62.802-.83 0-1.579-.187-2.238-.561a3.947 3.947 0 01-1.535-1.55c-.365-.66-.552-1.418-.552-2.264 0-.838.187-1.596.552-2.265z" fill="#37393F"/><path d="M38.884 65.855h-3.21l-.516 1.515h-2.193l3.11-8.601H38.5l3.111 8.6h-2.218l-.508-1.515zm-.544-1.613-1.07-3.147-1.052 3.147h2.122z" fill="#37393F"/><path d="M50.774 65.757h2.746v1.613h-4.84v-8.602h2.094v6.989z" fill="#37393F"/><path d="M19.86 75.304a.81.81 0 01.188.526c0 .17-.045.312-.134.446a.864.864 0 01-.374.312 1.28 1.28 0 01-.57.116h-1.31v-3.271h1.247c.223 0 .42.035.58.116.16.079.285.177.365.302.08.124.125.267.125.427a.75.75 0 01-.152.472.815.815 0 01-.4.276c.169.027.311.116.436.276zm-1.666-.499h.668c.179 0 .312-.035.41-.116a.426.426 0 00.152-.348.44.44 0 00-.151-.348.643.643 0 00-.41-.125h-.67v.935zm1.159 1.328c.107-.089.151-.213.151-.365a.47.47 0 00-.17-.383c-.106-.098-.257-.143-.436-.143h-.704v1.025h.722c.187 0 .33-.044.437-.133z" fill="#37393F"/><path d="M23.64 76.525a1.56 1.56 0 01-.606-.597 1.666 1.666 0 01-.222-.865c0-.32.07-.606.222-.864a1.56 1.56 0 01.606-.598 1.7 1.7 0 01.838-.214c.312 0 .589.07.847.214.259.142.455.338.606.597.153.257.224.543.224.864 0 .32-.071.606-.223.864a1.562 1.562 0 01-.605.597 1.708 1.708 0 01-.847.214c-.303 0-.588-.072-.838-.215zm1.418-.4c.17-.099.303-.241.4-.429.1-.187.143-.392.143-.641a1.3 1.3 0 00-.141-.633 1.068 1.068 0 00-.402-.42 1.14 1.14 0 00-.58-.142c-.214 0-.41.045-.58.143-.168.098-.302.24-.4.419a1.3 1.3 0 00-.143.633c0 .24.045.454.143.641.098.188.232.321.4.428.17.098.366.152.58.152.214 0 .41-.054.58-.152z" fill="#37393F"/><path d="M31.145 73.433v.436h-.873v2.834h-.535V73.87h-.874v-.437h2.282z" fill="#37393F"/><path d="M36.021 76.036H34.65l-.233.668h-.562l1.177-3.28h.624l1.177 3.28h-.562l-.249-.668zm-.15-.437-.535-1.525-.535 1.524h1.07z" fill="#37393F"/><path d="M42.377 76.704h-.534l-1.614-2.442v2.442h-.536v-3.28h.535l1.613 2.442v-2.442h.534v3.28z" fill="#37393F"/><path d="M45.978 73.433v3.27h-.535v-3.27h.535z" fill="#37393F"/><path d="M49.08 74.199a1.56 1.56 0 01.606-.598 1.7 1.7 0 01.838-.214c.348 0 .66.089.928.258.267.17.472.41.588.731h-.642a.83.83 0 00-.357-.383 1 1 0 00-.525-.125c-.213 0-.41.044-.579.142-.17.098-.303.24-.4.419a1.3 1.3 0 00-.144.633c0 .241.045.455.143.633.098.179.232.321.401.42.17.097.366.15.58.15.196 0 .374-.044.525-.124a.93.93 0 00.358-.383h.642a1.48 1.48 0 01-.589.72c-.275.17-.578.26-.926.26-.312 0-.588-.072-.846-.215a1.56 1.56 0 01-.607-.597 1.666 1.666 0 01-.221-.865c-.001-.32.079-.615.23-.864z" fill="#37393F"/><path d="M57.014 76.036H55.64l-.23.668h-.562l1.176-3.28h.624l1.177 3.28h-.562l-.25-.668zm-.152-.437-.535-1.525-.535 1.524h1.07z" fill="#37393F"/><path d="M61.213 76.267h1.105v.437h-1.64v-3.271h.535v2.834z" fill="#37393F"/><path d="M56.043 44.65v.963h1.132v.436h-1.132v1.007h1.274v.436h-1.81v-3.28h1.81v.437h-1.274z" fill="#37393F"/><path d="M59.875 47.413a.95.95 0 01-.41-.33.842.842 0 01-.152-.49h.57a.5.5 0 00.17.347c.098.09.24.134.42.134.187 0 .33-.045.436-.134a.424.424 0 00.15-.347.395.395 0 00-.097-.268.573.573 0 00-.241-.16 4.57 4.57 0 00-.401-.125 3.913 3.913 0 01-.516-.17.825.825 0 01-.34-.267c-.097-.125-.142-.285-.142-.49a.863.863 0 01.535-.82c.17-.071.366-.116.589-.116.32 0 .579.08.784.24.205.161.312.375.339.651h-.599a.41.41 0 00-.168-.303.66.66 0 00-.41-.125.57.57 0 00-.374.116c-.098.08-.143.188-.143.34 0 .097.027.186.09.249a.696.696 0 00.23.151c.1.036.224.08.384.125.213.063.391.117.525.18a.94.94 0 01.348.276c.098.124.142.285.142.499 0 .17-.044.32-.133.472a.952.952 0 01-.393.357c-.17.089-.375.133-.607.133a1.773 1.773 0 01-.588-.124z" fill="#37393F"/><path d="M65.767 44.222v.437h-.873v2.833h-.535V44.66h-.875v-.438h2.282z" fill="#37393F"/><path d="M55.74 52.413c.302-.258.534-.472.712-.642.178-.168.32-.346.437-.525a1.01 1.01 0 00.177-.543c0-.188-.044-.34-.134-.446-.089-.107-.231-.16-.418-.16a.532.532 0 00-.428.178c-.107.116-.16.276-.16.472h-.518c.008-.356.115-.633.32-.82.205-.187.464-.285.785-.285.338 0 .606.099.802.286.196.187.294.437.294.758 0 .223-.053.446-.168.65-.116.206-.25.393-.41.562-.16.17-.357.357-.607.57l-.214.188h1.49v.445h-2.29v-.393l.33-.294z" fill="#37393F"/><path d="M59.849 50.113c.186-.303.498-.463.952-.463.455 0 .767.151.945.463.187.303.277.731.277 1.275 0 .552-.09.98-.277 1.292-.187.312-.499.464-.945.464-.445 0-.766-.152-.953-.464-.189-.312-.278-.74-.278-1.292 0-.544.09-.972.277-1.275zm1.594.624a.868.868 0 00-.196-.428c-.098-.108-.25-.17-.446-.17-.196 0-.347.053-.445.17a.863.863 0 00-.196.427c-.026.17-.053.392-.053.642 0 .266.018.48.045.667.026.188.098.321.196.437.098.107.25.17.445.17.197 0 .348-.054.446-.17a.825.825 0 00.195-.437c.027-.178.045-.4.045-.668a3.472 3.472 0 00-.036-.643z" fill="#37393F"/><path d="M64.297 52.413c.303-.258.534-.472.713-.642.178-.168.32-.346.437-.525a1.01 1.01 0 00.178-.543c0-.188-.045-.34-.134-.446-.088-.107-.23-.16-.418-.16a.532.532 0 00-.428.178c-.107.116-.16.276-.16.472h-.517c.009-.356.116-.633.32-.82.206-.187.464-.285.785-.285.339 0 .606.099.802.286.197.187.295.437.295.758-.001.223-.055.446-.17.65-.117.206-.25.393-.41.562-.161.17-.357.357-.607.57l-.214.188h1.488v.445h-2.291v-.393l.33-.294z" fill="#37393F"/><path d="M68.415 50.113c.187-.303.5-.463.954-.463.453 0 .765.151.944.463.187.303.276.731.276 1.275 0 .552-.09.98-.276 1.292-.188.312-.5.464-.945.464-.447 0-.768-.152-.955-.464-.187-.312-.276-.74-.276-1.292-.001-.544.088-.972.275-1.275zm1.596.624a.868.868 0 00-.196-.428c-.098-.108-.25-.17-.445-.17-.197 0-.349.053-.447.17a.863.863 0 00-.196.427c-.027.17-.053.392-.053.642 0 .266.017.48.044.667.027.188.098.321.196.437.098.107.25.17.446.17.196 0 .347-.054.446-.17a.826.826 0 00.196-.437 4.56 4.56 0 00.044-.668 3.472 3.472 0 00-.035-.643z" fill="#37393F"/></svg>