<svg width="18" height="18" viewBox="0 0 18 18" fill="none" xmlns="http://www.w3.org/2000/svg"><path d="M9.167.36C4.373.36.485 4.247.485 9.04c0 3.552 2.14 6.605 5.198 7.95-.024-.606-.004-1.334.15-1.992l1.117-4.73s-.28-.554-.28-1.372c0-1.286.745-2.247 1.675-2.247.79 0 1.17.592 1.17 1.3 0 .795-.507 1.98-.767 3.08-.217.923.462 1.67 1.372 1.67 1.644 0 2.752-2.11 2.752-4.614 0-1.902-1.283-3.323-3.612-3.323-2.632 0-4.275 1.964-4.275 4.156 0 .755.225 1.29.574 1.7.157.19.18.266.122.483-.043.16-.136.543-.18.698-.057.222-.235.3-.433.22-1.214-.497-1.78-1.822-1.78-3.318 0-2.462 2.083-5.418 6.206-5.418 3.314 0 5.496 2.398 5.496 4.97 0 3.405-1.895 5.947-4.686 5.947-.938 0-1.817-.508-2.12-1.08 0 0-.504 1.998-.612 2.385-.182.67-.543 1.337-.872 1.86a8.73 8.73 0 002.46.356c4.795 0 8.682-3.885 8.682-8.677S13.96.363 9.167.363z" fill="white"/></svg>