<svg width="19" height="16" viewBox="0 0 19 16" fill="none" xmlns="http://www.w3.org/2000/svg"><path d="M18.485 2.452a7.698 7.698 0 01-2.157.584A3.72 3.72 0 0017.98.99a7.542 7.542 0 01-2.384.898A3.782 3.782 0 0012.852.718c-2.076 0-3.756 1.654-3.756 3.695 0 .284.03.567.097.843A10.707 10.707 0 011.45 1.392 3.65 3.65 0 00.94 3.25c0 1.28.668 2.413 1.678 3.077A3.72 3.72 0 01.91 5.867v.045c0 1.793 1.297 3.284 3.013 3.623-.323.086-.655.13-.99.13a3.6 3.6 0 01-.705-.07c.477 1.47 1.866 2.538 3.51 2.568a7.613 7.613 0 01-5.56 1.53 10.63 10.63 0 005.75 1.67c6.916 0 10.695-5.633 10.695-10.52 0-.16-.004-.32-.012-.476a7.572 7.572 0 001.876-1.915z" fill="white"/></svg>